<?xml version="1.0" standalone="no"?>
<!DOCTYPE svg PUBLIC "-//W3C//DTD SVG 20010904//EN"
 "http://www.w3.org/TR/2001/REC-SVG-20010904/DTD/svg10.dtd">
<svg version="1.0" xmlns="http://www.w3.org/2000/svg"
 width="374.000000pt" height="666.000000pt" viewBox="0 0 374.000000 666.000000"
 preserveAspectRatio="xMidYMid meet">

<g transform="translate(0.000000,666.000000) scale(0.100000,-0.100000)"
fill="#000000" stroke="none">
<path d="M1275 5332 c-125 -37 -241 -109 -331 -204 -38 -40 -58 -67 -127 -173
-41 -63 -113 -224 -146 -326 -27 -85 -53 -156 -113 -304 -11 -27 -26 -81 -33
-120 -17 -93 -53 -240 -70 -290 -38 -115 -53 -411 -24 -475 9 -19 20 -70 24
-112 4 -51 11 -78 19 -78 7 0 22 -13 34 -30 31 -42 21 -69 -50 -132 -33 -29
-87 -80 -119 -113 -125 -128 -145 -145 -160 -145 -9 0 -22 -6 -28 -14 -10 -12
-8 -15 11 -18 13 -2 22 -9 20 -16 -1 -6 4 -12 11 -12 7 0 17 -13 23 -28 8 -20
28 -37 70 -57 32 -16 75 -40 94 -52 43 -28 170 -73 205 -73 22 0 30 -9 26 -32
0 -4 6 -5 14 -2 8 4 15 2 15 -4 0 -5 9 -12 21 -15 12 -3 18 -10 15 -15 -3 -6
1 -12 9 -16 9 -3 15 -19 15 -38 0 -18 8 -42 17 -53 15 -19 15 -19 10 12 -5 23
-1 38 13 55 13 15 18 17 14 6 -7 -20 25 -71 40 -65 13 5 103 -79 94 -88 -2 -3
-23 13 -45 34 -29 28 -44 37 -54 30 -12 -8 -12 -10 0 -18 11 -7 11 -10 0 -15
-11 -4 -11 -7 -2 -12 45 -21 160 -105 222 -161 76 -71 87 -81 120 -123 l19
-25 27 25 c15 14 45 52 67 85 23 33 38 51 33 40 -4 -11 -8 -28 -9 -37 -1 -10
-28 -44 -59 -77 -31 -33 -57 -65 -57 -73 0 -11 2 -10 9 1 16 24 21 -5 26 -145
7 -181 13 -224 30 -224 8 0 16 -14 18 -32 3 -18 4 0 3 40 0 39 3 72 7 72 5 0
5 9 2 20 -4 11 -3 46 1 77 7 56 7 56 20 27 12 -27 12 -28 13 -5 1 20 3 21 16
11 8 -7 15 -22 15 -34 0 -28 15 -50 29 -42 7 4 11 -1 11 -12 0 -32 30 -93 41
-86 7 4 9 -1 5 -14 -4 -11 -2 -23 4 -27 5 -3 10 -17 10 -30 0 -12 7 -25 15
-29 10 -3 15 -19 15 -46 0 -22 5 -40 10 -40 6 0 10 6 10 14 0 8 7 16 15 20 23
8 40 -66 39 -174 0 -105 -6 -190 -14 -190 -3 0 -6 -12 -6 -26 -2 -26 -10 -41
-19 -32 -3 2 -11 33 -19 69 -10 44 -14 54 -15 33 -1 -17 6 -53 14 -80 19 -61
19 -112 1 -154 -7 -18 -11 -42 -8 -52 4 -18 6 -17 22 7 l18 27 11 -53 c47
-218 63 -356 59 -501 -2 -81 -2 -146 0 -144 2 3 8 52 13 111 11 126 2 222 -43
459 l-31 169 23 121 c19 96 24 152 23 271 0 83 -5 171 -11 198 -5 26 -6 50 -1
53 5 2 23 -9 40 -26 18 -16 37 -30 42 -30 6 0 24 -12 39 -27 24 -23 30 -25 38
-13 8 12 10 11 10 -5 1 -11 22 -42 48 -70 25 -27 39 -38 29 -23 -9 15 -17 35
-17 45 0 12 6 7 18 -14 9 -17 35 -53 57 -80 129 -154 217 -254 222 -250 2 3
42 -33 89 -78 l84 -83 0 -55 c0 -29 -9 -80 -20 -111 -17 -50 -18 -60 -5 -72
11 -11 16 -12 22 -2 4 7 19 19 32 27 l24 13 -6 -55 c-3 -31 -15 -77 -26 -103
-12 -26 -19 -56 -15 -67 6 -18 8 -17 35 9 50 47 49 27 -4 -161 -33 -118 -30
-125 32 -67 31 30 44 36 64 33 4 0 7 5 7 13 0 8 7 16 15 20 21 8 19 -7 -6 -38
-28 -35 -20 -59 15 -43 13 6 23 14 20 18 -2 3 8 17 21 29 18 17 25 19 25 9 0
-9 3 -10 8 -3 4 8 15 8 30 3 l23 -9 -21 -30 c-15 -21 -17 -28 -6 -24 8 3 18
13 22 22 6 14 8 13 14 -8 l8 -25 1 24 c1 24 2 24 15 6 11 -16 17 -17 29 -7 10
9 17 10 22 2 11 -18 38 -11 71 21 l33 32 30 -24 c31 -25 39 -39 21 -39 -5 0
-10 -6 -10 -14 0 -7 -14 -25 -31 -39 -20 -17 -28 -30 -23 -39 4 -7 4 -10 -1
-6 -5 5 -15 -1 -22 -12 -8 -11 -19 -18 -24 -15 -5 3 -6 0 -4 -8 3 -7 -8 -29
-24 -48 -30 -34 -31 -34 -31 -9 0 14 -5 32 -11 40 -7 11 -9 8 -5 -15 6 -40 25
-86 25 -62 1 9 8 17 17 17 15 0 94 74 94 88 1 8 87 62 99 62 5 0 14 13 21 29
6 16 27 46 46 67 19 21 42 49 50 63 9 14 31 37 50 51 18 14 34 31 34 38 0 6 3
12 8 13 21 2 44 8 49 13 3 3 14 1 25 -5 15 -8 27 -5 54 10 33 20 58 17 84 -9
10 -10 50 -30 61 -30 8 0 7 6 -2 17 -12 14 -12 16 1 9 8 -4 6 0 -5 8 -43 33
-74 69 -90 102 -8 18 -21 37 -29 41 -20 12 -100 132 -93 139 3 3 20 -14 38
-40 18 -25 35 -44 37 -41 3 3 -3 14 -13 25 -10 11 -14 20 -8 20 5 0 18 -9 28
-20 10 -11 24 -20 32 -20 7 0 13 -3 13 -8 0 -12 59 -34 71 -26 8 4 9 0 4 -15
-7 -24 7 -28 25 -6 10 12 16 13 27 4 7 -7 21 -13 31 -14 19 -2 48 -12 74 -26
28 -15 32 -10 12 13 -17 19 -17 21 -1 15 30 -11 19 11 -15 27 -34 18 -51 21
-28 6 9 -6 10 -10 3 -10 -23 0 -42 12 -37 24 3 7 -2 19 -11 26 -8 7 -15 19
-15 26 0 8 -3 14 -7 14 -5 0 -30 21 -57 46 -38 36 -51 43 -58 32 -8 -11 -9
-10 -6 1 6 23 25 24 46 4 10 -10 35 -33 54 -51 19 -18 48 -35 63 -38 29 -5 29
-5 11 15 -17 19 -17 19 3 14 12 -3 21 -8 21 -12 0 -4 25 -7 55 -6 30 0 55 3
55 7 0 4 12 3 26 -3 25 -9 26 -8 13 7 -12 15 -10 16 25 12 31 -3 43 0 61 18
l22 22 -35 7 c-19 3 -45 13 -58 22 -13 8 -29 11 -35 7 -8 -4 -9 -3 -5 4 14 22
-5 34 -25 16 -11 -9 -22 -14 -26 -11 -3 4 -2 7 4 7 6 0 13 9 16 19 4 15 -4 23
-37 35 -23 9 -48 16 -55 16 -8 0 -22 10 -32 22 -19 21 -20 21 -35 2 -14 -18
-15 -18 -5 3 15 29 14 30 -11 38 -15 4 -18 8 -10 12 7 3 24 -2 37 -11 14 -9
25 -13 25 -8 0 11 -76 47 -117 56 -18 4 -35 12 -38 17 -4 5 5 5 20 -1 35 -13
38 -13 31 5 -6 17 7 19 34 5 13 -7 19 -6 24 5 3 8 1 15 -5 15 -6 0 -7 5 -4 10
3 6 -4 10 -17 10 -18 0 -20 2 -8 10 13 8 13 10 -1 10 -9 0 -33 7 -53 15 -20 8
-38 15 -41 15 -3 0 -21 6 -40 14 -40 17 -41 15 -19 -20 10 -14 23 -23 30 -20
8 3 13 0 11 -6 -1 -6 4 -13 12 -16 9 -3 11 0 6 8 -6 9 -1 10 16 5 40 -12 58
-27 24 -20 -29 6 -29 6 -10 -9 20 -15 20 -15 -4 -16 -14 0 -33 7 -43 17 -10 9
-18 11 -18 5 0 -6 8 -15 17 -21 10 -5 15 -13 11 -16 -4 -4 -26 11 -50 33 -24
23 -59 55 -78 72 -26 23 -29 28 -10 18 14 -7 38 -24 54 -38 l29 -25 -26 47
-27 47 37 -13 c55 -18 123 -19 163 -2 l35 15 -30 2 c-16 1 -37 1 -45 0 -10 0
-11 1 -3 5 9 4 3 15 -17 36 -17 16 -35 39 -41 50 -9 17 -8 18 8 10 24 -13 82
-80 75 -87 -3 -3 -1 -5 5 -5 23 0 21 15 -7 47 -48 54 -37 61 54 32 16 -5 40
-9 53 -9 30 0 85 -28 78 -39 -3 -5 5 -9 18 -9 59 -2 102 -19 88 -36 -11 -13 4
-45 41 -96 16 -21 19 -22 35 -9 25 21 47 18 51 -8 2 -13 -5 -27 -20 -37 l-22
-16 22 0 c16 0 22 -6 23 -22 1 -13 3 -41 5 -63 1 -22 -1 -55 -6 -73 -5 -18 -5
-32 1 -32 5 0 9 -21 8 -48 0 -26 2 -59 4 -75 3 -15 0 -30 -4 -33 -5 -3 -14
-14 -19 -24 -8 -16 -8 -18 5 -14 8 4 15 1 15 -5 0 -6 -4 -11 -9 -11 -5 0 -14
-15 -22 -32 -7 -18 -25 -47 -40 -65 l-27 -31 -7 31 c-4 21 -9 27 -12 17 -4 -8
-18 -26 -32 -39 -14 -14 -25 -31 -23 -38 2 -7 -2 -13 -8 -13 -5 0 -10 -4 -10
-10 0 -5 11 -10 25 -10 14 0 25 -4 25 -10 0 -5 -6 -10 -13 -10 -7 0 -21 -16
-31 -35 -10 -19 -23 -32 -27 -29 -5 3 -9 0 -9 -5 0 -6 5 -11 11 -11 7 0 9 -11
6 -26 -3 -17 2 -32 16 -45 18 -16 18 -19 4 -19 -9 0 -17 -4 -17 -10 0 -5 -7
-10 -15 -10 -12 0 -13 -4 -3 -26 10 -22 10 -28 -3 -38 -11 -7 -14 -17 -8 -31
4 -11 8 -14 8 -7 1 6 5 12 10 12 5 0 9 -22 8 -49 0 -30 6 -59 16 -75 9 -14 17
-32 17 -41 0 -12 17 -15 105 -15 l105 0 0 618 0 617 -35 28 c-19 15 -35 32
-35 38 0 5 -15 23 -32 39 -31 28 -38 29 -116 29 -45 -1 -80 -4 -78 -8 3 -4 28
-13 55 -21 29 -8 51 -19 51 -27 0 -7 10 -14 23 -14 18 -1 19 -2 3 -6 -35 -9
-110 19 -143 53 -18 19 -39 34 -47 34 -20 0 -66 21 -66 31 0 11 57 28 66 19
15 -14 119 -17 117 -3 -1 6 4 17 12 23 19 16 19 46 0 54 -10 3 -15 -1 -15 -11
0 -13 -4 -12 -19 5 -10 12 -21 19 -25 15 -3 -3 -6 -1 -6 6 0 8 -7 11 -15 7
-18 -7 -20 5 -2 23 10 11 8 13 -10 8 -26 -6 -30 5 -8 23 19 16 20 31 1 24 -7
-3 -16 2 -20 11 -3 10 -2 14 5 10 6 -4 9 -1 8 6 -2 8 2 24 9 36 7 12 8 24 3
27 -5 3 -11 -1 -15 -9 -7 -19 -33 -9 -39 16 -3 11 -1 17 5 13 6 -4 -2 15 -18
42 -30 52 -39 65 -65 92 -9 9 -22 27 -28 39 -10 20 -9 22 6 17 15 -5 15 -3 -2
10 -44 36 -75 68 -74 79 0 7 7 2 16 -11 16 -23 43 -30 43 -11 0 7 9 9 22 6 14
-4 -1 15 -43 55 -43 40 -50 50 -22 29 23 -18 44 -27 48 -22 3 6 -14 23 -37 38
-24 15 -46 32 -50 38 -4 5 -8 -4 -8 -20 0 -17 6 -37 13 -45 10 -12 9 -12 -5
-1 -9 6 -19 29 -23 51 -5 31 -14 43 -51 66 -24 15 -44 32 -44 37 0 4 -4 6 -8
3 -9 -5 -66 29 -60 36 2 2 -13 18 -32 36 -30 27 -32 31 -15 32 11 0 33 -7 49
-15 15 -8 32 -13 36 -10 4 3 11 -5 15 -18 3 -12 8 -17 11 -11 3 8 19 6 51 -5
36 -12 47 -13 50 -3 6 15 57 16 83 2 19 -10 92 -26 158 -35 36 -5 40 5 20 48
-7 15 -22 28 -33 28 -11 1 -33 3 -50 5 -64 5 -299 62 -303 73 -2 6 -8 9 -12 6
-5 -3 -18 2 -29 12 -30 28 -43 36 -86 58 -38 18 -100 62 -136 95 -9 8 -31 28
-50 44 l-34 28 -6 -23 c-6 -21 -7 -19 -9 11 l-2 35 -9 -30 c-7 -23 -5 -33 11
-47 11 -11 20 -24 20 -30 0 -6 -9 -3 -20 7 -20 18 -20 18 -5 -11 18 -36 55
-77 63 -69 3 3 -4 13 -17 21 -16 12 -20 19 -12 27 13 13 50 -21 43 -41 -2 -7
2 -10 11 -7 7 3 20 -2 28 -11 13 -15 12 -16 -11 -9 -22 7 -23 6 -11 -9 18 -22
26 -20 39 7 9 18 11 19 11 4 1 -10 25 -33 58 -53 47 -30 59 -35 75 -25 11 7
18 7 18 1 0 -5 -5 -10 -12 -10 -18 0 -3 -10 23 -16 13 -2 40 -8 59 -13 l35 -9
-33 -1 c-28 -1 -68 10 -157 44 -16 7 -18 6 -7 -6 6 -7 12 -17 12 -23 0 -5 -6
-1 -14 9 -8 11 -12 23 -10 27 2 3 -9 16 -26 28 l-30 21 0 -25 c0 -14 -5 -28
-12 -32 -7 -5 -9 0 -6 14 9 31 -19 36 -38 6 -17 -25 -33 -27 -18 -2 5 7 10 22
11 33 2 17 0 16 -11 -5 l-14 -24 -4 24 c-1 14 -13 29 -25 35 -17 7 -23 18 -23
40 0 23 -3 27 -10 15 -15 -23 -12 -67 5 -84 8 -8 15 -21 15 -29 0 -8 6 -20 14
-26 8 -6 16 -22 19 -34 6 -22 6 -22 -9 -2 -9 11 -19 27 -25 35 -15 25 -29 -8
-29 -71 0 -31 -5 -70 -11 -88 -10 -29 -12 -30 -25 -14 -7 10 -14 30 -14 44 0
14 -3 28 -6 32 -11 11 -34 -5 -34 -25 0 -10 -4 -16 -10 -13 -5 3 -10 1 -10 -5
0 -21 -20 1 -29 33 l-9 32 0 -30 c0 -35 15 -98 17 -72 0 9 6 17 12 17 6 0 9
-6 6 -13 -3 -7 -2 -32 2 -54 5 -26 4 -46 -4 -56 -10 -15 -14 -12 -31 21 -10
20 -29 47 -41 59 -13 12 -23 32 -22 45 0 23 0 23 9 2 5 -12 13 -25 19 -29 13
-8 13 -8 0 35 -17 56 -27 154 -18 172 6 10 5 18 -3 20 -7 3 -8 9 -3 18 5 8 10
33 12 55 5 53 11 68 24 59 7 -4 9 -22 6 -45 -6 -45 1 -81 14 -73 5 3 9 -14 9
-38 0 -24 5 -50 10 -58 7 -10 10 27 10 113 0 83 4 126 10 122 6 -3 10 -2 10 3
0 6 -7 13 -16 16 -22 9 -24 8 -18 -9 4 -8 1 -15 -6 -15 -15 0 -9 52 7 58 7 2
13 -3 13 -12 0 -9 4 -16 8 -16 5 0 9 15 9 33 0 17 2 75 5 128 3 73 1 94 -8 85
-6 -7 -15 -22 -19 -35 -4 -12 -9 -20 -12 -17 -4 3 -13 0 -21 -7 -14 -11 -14
-4 -7 53 5 36 10 90 11 120 6 117 6 118 12 90 5 -19 7 -13 12 25 l5 50 18 -26
c12 -19 18 -47 18 -102 1 -43 5 -77 10 -77 5 0 9 7 9 15 0 9 6 12 17 8 14 -5
15 -1 10 25 -4 18 -3 32 2 32 15 0 19 -50 8 -81 -6 -16 -15 -29 -19 -29 -4 0
-8 -10 -7 -22 0 -22 1 -22 9 -3 5 11 9 16 10 10 2 -5 6 4 10 20 l8 30 1 -28
c0 -16 5 -26 10 -22 12 7 3 187 -10 224 l-9 26 20 -24 c24 -28 25 -21 5 47 -9
29 -13 56 -11 61 3 5 0 11 -8 14 -9 4 -13 16 -12 32 2 14 1 23 -2 20 -3 -2
-12 1 -20 8 -13 10 -14 9 -7 -2 5 -9 4 -12 -3 -7 -6 3 -14 28 -17 54 -4 26
-16 65 -27 86 -15 29 -18 41 -9 44 9 3 9 8 -1 20 -11 13 -11 14 1 8 7 -5 -3
23 -24 63 -21 39 -42 71 -47 71 -5 0 -6 5 -3 10 3 6 1 10 -6 10 -8 0 -9 3 0
14 13 15 -10 70 -36 84 -14 8 -13 10 1 15 9 4 16 11 16 17 0 6 -4 9 -9 5 -5
-3 -12 -1 -16 5 -3 5 -1 10 5 10 6 0 8 5 5 10 -4 6 -12 7 -18 4 -9 -5 -9 -4 0
6 6 7 9 19 6 27 -5 12 -7 12 -15 1 -5 -8 -6 -2 -2 16 5 21 4 27 -5 22 -7 -5
-11 3 -11 22 0 37 -19 92 -32 92 -5 0 -6 4 -3 10 3 5 -1 37 -9 71 -20 75 -20
77 0 53 15 -19 15 -19 10 1 -3 11 -10 48 -17 82 -6 35 -15 60 -20 57 -5 -3 -9
0 -9 5 0 6 5 11 10 11 6 0 4 12 -4 29 -13 24 -31 106 -40 175 -1 11 -8 22 -14
24 -7 2 -12 16 -12 32 0 37 -10 61 -21 54 -5 -3 -9 9 -9 25 0 17 -4 31 -10 31
-5 0 -10 12 -10 28 0 21 -2 24 -10 12 -8 -13 -10 -13 -11 3 -2 21 -3 26 -17
60 -7 16 -12 35 -12 43 0 8 -6 25 -14 37 -8 12 -22 51 -31 87 -15 63 -28 98
-46 130 -5 8 -16 30 -25 47 -9 18 -19 31 -23 29 -3 -2 -11 2 -18 9 -10 10 -9
14 2 19 9 3 37 -17 72 -52 31 -31 53 -48 49 -37 -5 11 -9 28 -10 38 -1 9 -8
23 -15 30 -11 10 -12 7 -7 -13 7 -24 6 -24 -8 -6 -9 11 -16 28 -16 38 0 29
-96 117 -125 114 -14 -2 -22 1 -19 9 3 6 -3 18 -13 27 -17 14 -85 42 -108 43
-5 1 -21 7 -34 14 -29 16 -104 8 -137 -14 -31 -20 -72 -19 -120 4 -54 26 -129
32 -189 13z m298 -95 c3 -22 2 -35 -4 -32 -5 4 -9 22 -9 42 0 45 5 40 13 -10z
m284 11 c-3 -8 -6 -5 -6 6 -1 11 2 17 5 13 3 -3 4 -12 1 -19z m-20 -50 c-3 -7
-5 -2 -5 12 0 14 2 19 5 13 2 -7 2 -19 0 -25z m-150 -10 c-3 -8 -6 -5 -6 6 -1
11 2 17 5 13 3 -3 4 -12 1 -19z m190 -30 c-3 -7 -5 -2 -5 12 0 14 2 19 5 13 2
-7 2 -19 0 -25z m60 -20 c-3 -8 -6 -5 -6 6 -1 11 2 17 5 13 3 -3 4 -12 1 -19z
m40 -339 c10 -16 21 -29 26 -29 4 0 5 -4 2 -10 -3 -5 -1 -10 4 -10 6 0 11 -7
11 -16 0 -8 4 -13 9 -9 13 8 19 -5 25 -56 3 -25 18 -68 32 -95 81 -149 89
-176 55 -167 -12 3 -17 11 -14 19 3 8 1 14 -5 14 -5 0 -12 -9 -15 -21 -4 -14
1 -23 17 -30 12 -6 28 -20 35 -31 24 -39 -43 -76 -85 -46 -6 4 -33 6 -60 4
-57 -4 -70 0 -53 20 14 18 43 19 33 2 -6 -10 -4 -10 7 -2 8 6 21 14 29 18 8 3
5 4 -8 2 -12 -2 -20 0 -16 5 3 5 15 9 28 9 23 0 66 33 66 51 0 13 -145 10
-205 -5 -60 -16 -88 -44 -89 -93 -1 -21 -5 -43 -9 -49 -17 -28 -8 -123 17
-172 8 -16 13 -32 10 -35 -3 -3 11 -10 30 -17 32 -10 35 -14 25 -32 -6 -11 -8
-23 -4 -26 3 -3 8 4 12 16 6 25 23 30 23 7 0 -17 25 -20 35 -5 4 6 -1 7 -11 3
-12 -4 -15 -3 -10 6 5 7 1 18 -10 26 -11 7 -16 17 -12 20 4 4 21 -7 38 -24 35
-35 64 -43 34 -10 -19 22 -19 22 6 14 14 -4 27 -12 28 -16 2 -5 8 -7 13 -3 16
10 9 -8 -8 -23 -16 -13 -16 -13 5 -3 23 11 31 40 10 40 -9 0 -9 3 -1 11 6 6 9
18 6 25 -3 9 2 14 13 14 24 0 39 -11 47 -33 4 -10 10 -16 15 -13 31 19 86 -93
59 -120 -10 -11 -9 -26 2 -20 13 8 17 -12 14 -64 -4 -70 -13 -124 -23 -134 -5
-5 -6 -14 -3 -22 7 -19 -36 -76 -53 -70 -8 3 -14 -1 -14 -9 0 -8 5 -15 10 -15
6 0 10 -4 10 -10 0 -5 -8 -10 -17 -10 -15 0 -16 -2 -3 -10 8 -5 11 -12 8 -16
-4 -4 -3 -15 2 -25 8 -14 6 -19 -10 -24 -14 -4 -20 -15 -20 -36 0 -16 -3 -28
-7 -28 -21 3 -26 -2 -13 -12 12 -8 10 -9 -7 -4 -14 4 -23 2 -23 -4 0 -6 7 -11
15 -11 8 0 15 -5 15 -11 0 -6 -7 -8 -15 -5 -11 4 -17 -3 -22 -24 -5 -27 -7
-28 -18 -14 -11 16 -12 15 -19 -1 -5 -15 -9 -15 -23 -4 -15 13 -15 12 -4 -10
10 -18 15 -21 22 -10 4 7 11 10 15 6 4 -4 0 -15 -9 -25 -10 -10 -14 -22 -10
-26 9 -9 -77 -88 -91 -83 -5 2 -26 -4 -45 -14 -19 -9 -46 -15 -60 -13 -15 1
-49 5 -77 8 -28 3 -62 10 -76 15 -14 5 -29 7 -32 4 -3 -4 -6 -1 -6 6 0 7 -4
10 -9 7 -5 -3 -11 1 -15 9 -3 8 -12 15 -19 15 -10 0 -13 8 -9 25 2 14 0 25 -4
25 -9 0 -64 44 -64 52 0 2 12 4 27 3 14 0 27 6 29 13 1 7 0 8 -3 2 -6 -14 -30
-13 -39 2 -4 6 1 17 10 24 15 10 12 12 -21 12 -33 0 -35 -1 -20 -13 12 -8 14
-15 8 -20 -6 -3 -11 -1 -11 6 0 9 -4 9 -15 -1 -16 -13 -36 -5 -34 13 4 35 -1
40 -21 22 -20 -18 -20 -17 -16 15 5 40 -2 60 -19 60 -7 0 -18 7 -25 15 -9 10
-9 15 -1 15 6 0 11 5 11 11 0 6 -7 9 -15 5 -8 -3 -15 -1 -15 5 0 6 -6 9 -13 6
-10 -4 -13 2 -9 19 3 16 -1 26 -12 30 -9 3 -16 16 -16 29 0 12 -9 34 -21 49
-11 14 -19 34 -17 43 1 10 -1 24 -6 31 -4 7 -2 20 6 29 9 12 9 15 1 9 -13 -7
-18 8 -15 44 0 8 -3 33 -8 54 -5 24 -5 47 1 58 7 14 6 16 -6 12 -10 -4 -15 0
-15 10 0 9 7 16 15 16 10 0 15 7 13 18 -2 12 3 17 20 16 20 -1 22 3 17 23 -3
12 -1 24 5 24 5 1 15 2 21 3 6 0 17 9 24 20 16 21 45 15 45 -9 0 -8 4 -15 9
-15 4 0 6 11 3 25 -2 15 0 25 7 25 6 0 11 -8 11 -17 1 -20 59 -95 60 -76 0 11
30 10 49 -1 5 -3 12 1 15 10 4 9 11 12 18 7 7 -4 23 -6 36 -4 16 2 22 -3 22
-17 0 -11 5 -22 11 -24 8 -3 7 -15 -5 -40 -10 -21 -15 -42 -11 -48 6 -9 2 -9
-13 -1 -26 14 -42 14 -22 1 13 -9 13 -11 0 -20 -11 -7 -16 -5 -18 5 -2 8 -8
15 -14 15 -6 0 -7 -13 -2 -32 8 -37 8 -43 -1 -78 -5 -25 -5 -25 5 -2 6 15 14
20 22 16 9 -6 9 -9 0 -12 -17 -5 -15 -22 3 -22 8 0 14 -5 12 -12 -1 -7 5 -13
13 -14 45 -4 46 -4 27 -18 -15 -12 -16 -14 -2 -20 8 -3 15 0 16 7 0 9 2 9 6 0
2 -7 12 -13 20 -13 13 0 13 3 3 18 -7 9 2 1 19 -18 17 -19 31 -30 31 -25 0 6
4 4 9 -4 8 -12 12 -12 25 -2 9 8 16 19 16 25 0 7 -3 6 -8 -2 -7 -10 -14 -10
-35 1 -15 8 -24 17 -20 20 3 4 1 7 -5 7 -7 0 -12 4 -12 10 0 5 7 7 15 4 8 -4
15 -1 15 5 0 6 6 11 14 11 21 0 26 47 6 65 -25 23 -83 38 -77 21 3 -8 3 -17 0
-20 -9 -9 -34 15 -27 25 3 5 1 9 -4 9 -6 0 -8 9 -5 20 5 19 6 20 19 3 9 -12
13 -13 14 -5 0 18 41 59 67 66 15 5 25 1 33 -11 11 -16 11 -17 6 0 -3 9 -1 17
4 17 6 0 10 -4 10 -10 0 -5 9 -10 20 -10 17 0 20 7 20 50 0 30 -4 50 -11 50
-6 0 -9 8 -6 18 19 59 20 65 9 58 -8 -5 -10 -2 -6 9 10 25 -5 68 -19 57 -7 -5
-21 -6 -31 -2 -13 4 -16 9 -8 14 15 9 4 36 -15 36 -8 0 -11 -4 -8 -10 3 -5 1
-10 -5 -10 -6 0 -8 -5 -4 -12 5 -8 0 -9 -14 -6 -15 4 -20 3 -15 -5 4 -7 8 -19
10 -27 1 -10 -3 -9 -13 4 -18 25 -18 35 1 42 8 4 15 10 15 16 0 5 -5 6 -12 2
-7 -5 -9 -2 -5 9 5 14 -12 29 -38 31 -5 1 -15 11 -21 24 -6 13 -15 24 -20 24
-5 0 -18 5 -29 10 -19 8 -19 8 2 4 15 -2 20 0 16 10 -2 7 -11 10 -18 8 -7 -3
-16 0 -20 5 -3 6 -11 9 -16 6 -5 -4 -9 -2 -9 4 0 5 12 14 28 19 17 7 21 11 10
11 -10 1 -18 5 -18 11 0 10 50 8 68 -4 6 -3 13 -2 17 4 4 6 10 8 15 5 4 -3 11
2 14 10 6 17 -31 65 -50 65 -6 0 -17 7 -24 15 -7 8 -16 13 -20 10 -5 -3 -15 2
-24 10 -8 9 -19 16 -23 16 -4 1 -7 5 -6 9 1 4 -7 6 -17 3 -11 -3 -20 0 -20 6
0 7 -8 7 -27 0 -24 -9 -31 -7 -50 16 -13 14 -23 31 -23 38 0 7 4 6 10 -3 8
-13 10 -13 10 1 0 12 7 15 24 12 15 -3 23 -10 19 -18 -4 -11 0 -12 21 -2 20 9
23 14 13 22 -9 7 -11 19 -6 37 4 15 4 29 1 31 -4 2 -1 2 7 0 8 -2 18 2 23 9 6
10 8 8 8 -5 0 -14 6 -16 29 -12 23 4 31 1 36 -14 4 -14 12 -17 33 -13 25 5 26
4 12 -14 -14 -18 -14 -18 3 -5 14 11 20 11 32 1 12 -10 18 -10 30 0 9 7 19 9
23 5 4 -4 2 -10 -5 -12 -7 -2 -9 -11 -7 -18 5 -11 10 -12 24 -3 15 10 16 14 4
25 -19 20 -18 30 6 36 12 3 20 0 20 -8 0 -9 9 -10 33 -5 17 4 31 12 29 19 -2
9 3 9 17 1 28 -15 33 -13 26 11 -5 16 -4 19 5 14 9 -5 10 -1 5 15 -5 15 -4 20
4 16 6 -4 11 0 11 9 0 9 5 13 10 10 6 -3 10 1 10 9 0 9 -6 16 -12 17 -7 0 -3
4 10 9 12 5 22 16 22 24 0 21 54 61 85 62 18 1 30 -6 42 -27z m-387 -134 c-7
-8 -17 -15 -22 -15 -11 0 14 29 26 30 5 0 3 -7 -4 -15z m-66 -10 c-4 -10 0
-15 12 -15 13 0 15 -3 7 -11 -8 -8 -17 -6 -32 7 -26 23 -27 34 -1 34 13 0 18
-5 14 -15z m80 -46 c-9 -16 -20 -10 -21 12 -2 17 1 18 12 9 8 -7 12 -16 9 -21z
m-294 -189 c0 -5 5 -10 11 -10 5 0 7 5 3 11 -7 12 23 6 66 -14 36 -16 35 -16
14 -32 -19 -15 -19 -15 1 -9 16 5 17 4 5 -4 -10 -8 -18 -8 -28 0 -10 9 -14 6
-19 -10 -7 -28 -34 -28 -51 -2 -10 17 -16 19 -33 9 -11 -6 -27 -8 -34 -5 -7 2
-19 -2 -26 -10 -7 -8 -20 -12 -30 -9 -11 4 -19 2 -19 -4 0 -6 -4 -11 -10 -11
-5 0 -10 16 -10 35 0 19 3 34 8 33 4 -2 17 7 30 20 17 17 33 22 72 22 28 0 50
-4 50 -10z m160 -72 c0 -12 -14 -10 -28 4 -19 19 -14 29 8 16 11 -7 20 -16 20
-20z m-60 -12 c0 -2 -7 -7 -16 -10 -8 -3 -12 -2 -9 4 6 10 25 14 25 6z m-140
-16 c-8 -5 -19 -10 -25 -10 -5 0 -3 5 5 10 8 5 20 10 25 10 6 0 3 -5 -5 -10z
m815 -90 c9 -14 -13 -40 -32 -40 -12 0 -13 3 -3 15 6 8 9 19 5 25 -3 5 1 10 9
10 8 0 18 -5 21 -10z m-650 -16 c19 -19 11 -30 -27 -39 -23 -6 -26 -4 -21 14
4 17 1 21 -18 22 -22 0 -23 1 -4 9 31 13 52 11 70 -6z m-180 -24 c3 -5 1 -10
-4 -10 -6 0 -11 5 -11 10 0 6 2 10 4 10 3 0 8 -4 11 -10z m405 -54 c0 -3 -4
-8 -10 -11 -5 -3 -10 -1 -10 4 0 6 5 11 10 11 6 0 10 -2 10 -4z m63 -21 c-3
-9 -8 -14 -10 -11 -3 3 -2 9 2 15 9 16 15 13 8 -4z m-433 -5 c0 -5 -2 -10 -4
-10 -3 0 -8 5 -11 10 -3 6 -1 10 4 10 6 0 11 -4 11 -10z m-46 -36 c4 -11 2
-15 -8 -11 -7 3 -20 0 -27 -6 -7 -7 -5 -2 5 11 23 26 22 26 30 6z m771 7 c3
-5 1 -12 -4 -15 -5 -3 -11 1 -15 9 -6 16 9 21 19 6z m-462 -22 c-16 -16 -5
-39 20 -39 11 0 17 -3 14 -7 -4 -3 -2 -12 4 -20 9 -10 7 -13 -9 -13 -11 0 -22
8 -25 20 -4 14 -14 20 -33 20 l-29 0 25 24 c14 14 29 25 35 25 5 1 4 -4 -2
-10z m33 -14 c-8 -8 -18 -15 -22 -15 -3 0 -1 7 6 15 7 8 17 15 22 15 5 0 3 -7
-6 -15z m31 -17 c-3 -8 -6 -5 -6 6 -1 11 2 17 5 13 3 -3 4 -12 1 -19z m120
-53 c0 -8 -4 -15 -9 -15 -10 0 -11 14 -1 23 9 10 10 9 10 -8z m-4 -39 c4 -10
1 -13 -8 -9 -8 3 -12 9 -9 14 7 12 11 11 17 -5z m-91 -166 c18 -11 29 -20 25
-20 -11 0 -67 29 -67 35 0 9 9 5 42 -15z m783 -130 c3 -5 1 -10 -4 -10 -6 0
-11 5 -11 10 0 6 2 10 4 10 3 0 8 -4 11 -10z m-1928 -42 c-3 -7 -5 -2 -5 12 0
14 2 19 5 13 2 -7 2 -19 0 -25z m1903 -19 c0 -6 -4 -7 -10 -4 -5 3 -10 11 -10
16 0 6 5 7 10 4 6 -3 10 -11 10 -16z m-244 -5 c-3 -9 -9 -27 -12 -40 -7 -26
-24 -33 -24 -9 0 8 6 15 13 16 10 0 10 2 0 6 -7 2 -13 9 -13 14 0 6 5 7 10 4
6 -3 10 1 10 9 0 9 5 16 11 16 6 0 8 -7 5 -16z m-31 -94 c-3 -5 -12 -10 -18
-10 -7 0 -6 4 3 10 19 12 23 12 15 0z m-25 -30 c0 -5 -2 -10 -4 -10 -3 0 -8 5
-11 10 -3 6 -1 10 4 10 6 0 11 -4 11 -10z m362 -55 c9 -20 9 -20 -6 -1 -9 11
-16 27 -15 35 0 14 1 14 6 1 3 -8 10 -24 15 -35z m26 -50 c-3 -3 -9 2 -12 12
-6 14 -5 15 5 6 7 -7 10 -15 7 -18z m-1954 -337 c-15 -23 -31 -45 -37 -47 -5
-2 -3 -8 4 -13 9 -6 1 -7 -26 -3 -48 8 -55 14 -33 26 9 5 38 26 65 48 26 21
49 37 51 36 2 -2 -9 -23 -24 -47z m1431 -80 c-1 -38 -6 -63 -14 -66 -8 -3 -6
-8 6 -18 17 -13 17 -14 -5 -20 -25 -7 -24 -30 2 -28 10 1 16 -6 16 -18 0 -11
-4 -16 -11 -12 -7 4 -10 -1 -7 -12 2 -12 12 -19 28 -20 13 -1 26 -7 28 -13 5
-16 60 -43 72 -36 6 3 15 -6 20 -20 13 -33 13 -38 0 -30 -5 3 -10 2 -10 -3 0
-12 30 -37 30 -26 2 38 60 -135 60 -177 0 -17 12 -42 30 -62 17 -19 30 -41 30
-49 0 -27 12 -28 32 -3 11 14 29 25 41 24 19 0 19 -2 -5 -11 -23 -8 -28 -16
-28 -41 0 -18 9 -50 20 -72 14 -28 19 -33 16 -15 -2 14 -7 41 -10 60 l-6 35
15 -30 c8 -16 14 -37 15 -45 0 -13 1 -13 10 0 8 12 9 10 8 -10 0 -14 16 -70
36 -125 49 -131 47 -125 33 -125 -8 0 -30 28 -50 62 -20 35 -37 57 -37 50 0
-15 29 -71 65 -124 14 -21 21 -38 15 -38 -5 0 -10 4 -10 8 0 5 -7 9 -15 9 -8
0 -15 -6 -15 -14 0 -7 -4 -13 -8 -13 -21 0 -5 -40 18 -49 33 -11 60 3 60 29 0
11 5 20 10 20 6 0 10 -4 10 -10 0 -5 7 -10 15 -10 8 0 15 -7 15 -15 0 -49 14
-64 57 -60 33 3 36 2 20 -9 -16 -12 -14 -16 20 -42 20 -15 32 -29 26 -31 -11
-4 18 -55 99 -170 24 -34 46 -62 50 -63 4 0 2 15 -3 32 -5 18 -9 34 -9 36 0 2
-4 1 -9 -3 -5 -3 -13 0 -17 6 -5 8 -3 9 6 4 10 -6 12 -4 7 8 -15 38 5 13 33
-43 17 -34 37 -63 45 -66 8 -3 11 -12 8 -21 -4 -11 -2 -14 5 -9 8 5 12 0 12
-14 0 -12 14 -48 30 -82 17 -33 30 -62 30 -65 0 -16 -32 25 -50 65 -41 88 -55
113 -74 130 -15 13 -13 7 8 -33 14 -27 26 -57 26 -65 0 -8 -22 26 -48 75 -45
85 -98 153 -114 147 -5 -1 -8 6 -8 16 0 23 -59 104 -71 96 -5 -3 -9 0 -9 7 0
7 -3 9 -7 6 -3 -4 5 -20 20 -35 14 -15 42 -56 61 -92 72 -136 80 -150 90 -150
13 0 56 -41 56 -54 0 -11 45 -80 74 -113 11 -13 16 -23 11 -23 -4 0 -14 8 -21
17 -7 10 -14 13 -14 7 0 -5 8 -19 18 -30 9 -10 22 -34 29 -53 10 -27 10 -36
-2 -48 -13 -13 -15 -12 -15 1 0 9 -3 16 -7 16 -5 0 -8 -11 -8 -25 0 -14 3 -25
8 -25 4 0 7 -7 7 -15 0 -8 10 -19 21 -26 20 -10 21 -9 16 12 -6 23 -5 23 8 5
14 -19 15 -19 35 -1 17 16 20 16 20 2 0 -25 21 -31 27 -8 6 22 24 24 31 3 2
-7 -7 -16 -21 -21 -23 -9 -24 -14 -22 -75 2 -36 -1 -66 -6 -66 -5 0 -9 9 -9
19 0 29 -12 32 -40 11 l-24 -18 30 5 c17 3 25 2 21 -3 -5 -5 -14 -9 -20 -9 -7
0 -12 -11 -11 -23 l1 -23 -26 26 c-22 22 -24 27 -11 35 11 7 3 10 -30 11 -36
1 -40 2 -20 8 14 4 35 6 48 5 48 -5 12 21 -94 68 -60 26 -115 56 -123 66 -12
15 -13 14 -7 -13 4 -16 18 -38 30 -47 13 -10 32 -30 42 -45 14 -23 10 -21 -27
11 -24 22 -47 52 -52 67 -4 15 -16 30 -26 34 -11 3 -17 13 -15 23 3 12 -14 28
-55 55 -61 40 -102 77 -83 77 6 0 13 -6 15 -12 4 -8 6 -9 6 -2 1 6 -19 30 -44
53 -24 22 -53 53 -62 68 l-18 28 33 -23 c17 -13 32 -19 32 -13 0 5 -6 14 -12
18 -7 4 -20 17 -28 27 -14 18 -14 19 9 7 47 -25 9 9 -65 58 -81 54 -100 62
-89 34 29 -72 34 -144 6 -96 -7 14 -12 7 -24 -33 -15 -52 -35 -91 -80 -161
-15 -24 -27 -47 -27 -53 0 -5 -4 -10 -10 -10 -13 0 -14 -1 15 59 35 72 86 213
74 206 -12 -8 -11 1 2 24 17 26 3 95 -18 87 -13 -5 -14 -4 -3 9 7 8 10 21 7
29 -4 10 -1 13 9 9 8 -3 13 -11 10 -18 -2 -6 -1 -17 4 -24 5 -10 9 -9 13 3 3
8 -15 57 -41 108 -33 66 -61 105 -96 136 -26 24 -51 40 -54 37 -4 -3 -2 -9 3
-13 6 -4 19 -18 30 -32 11 -14 13 -19 5 -12 -8 6 -21 12 -29 12 -13 -1 -12 -4
4 -15 33 -24 76 -68 97 -100 12 -16 -7 -2 -42 33 -100 98 -110 78 -13 -25 26
-28 28 -33 11 -27 -47 14 -87 45 -81 62 4 13 3 14 -5 3 -11 -16 -36 -5 -29 13
4 9 -3 11 -20 8 -16 -3 -24 -1 -20 5 4 6 -22 33 -57 62 -54 43 -70 51 -105 51
-26 0 -44 5 -47 14 -3 8 -13 12 -25 9 -10 -3 -19 0 -19 6 0 6 -5 11 -11 11 -5
0 -8 -4 -4 -9 3 -6 -4 -15 -15 -21 -20 -11 -21 -10 -10 10 10 18 7 22 -26 36
-20 9 -62 16 -93 18 -31 1 -62 5 -69 10 -8 5 -18 4 -25 -3 -14 -14 -27 -14
-27 -1 0 6 8 10 18 10 9 0 -3 10 -28 23 -68 34 -140 86 -139 100 0 9 2 9 6 0
3 -9 14 -11 31 -6 24 5 25 4 14 -9 -13 -16 -5 -25 22 -26 5 0 13 -7 18 -16 5
-9 15 -16 23 -16 8 0 30 -10 50 -21 20 -12 50 -23 68 -25 29 -4 30 -3 11 11
-10 8 -25 15 -31 15 -7 0 -13 7 -13 16 0 8 4 12 10 9 5 -3 19 -1 30 5 11 6 20
7 20 1 0 -5 -8 -12 -17 -15 -14 -6 -12 -9 11 -21 36 -19 37 -19 29 2 -5 12 4
8 30 -11 23 -18 54 -30 82 -34 52 -5 59 8 18 35 -16 10 -50 42 -77 71 -27 28
-55 52 -62 52 -8 0 -14 7 -14 15 0 17 12 19 26 5 5 -5 25 -11 44 -13 18 -1 35
-8 38 -15 3 -9 -3 -10 -22 -2 -14 5 -26 7 -26 4 0 -10 125 -124 136 -124 3 0
19 -9 35 -21 16 -11 29 -16 29 -11 0 5 -11 14 -25 20 -14 6 -25 17 -25 24 0 7
-12 24 -25 37 -14 13 -25 29 -25 36 0 18 17 28 24 16 4 -5 1 -11 -4 -13 -16
-5 70 -68 93 -68 14 0 18 -5 14 -20 -3 -12 -1 -17 5 -14 5 3 22 7 37 8 32 2
92 37 74 43 -7 3 -10 10 -7 17 2 6 -2 31 -10 54 -8 23 -12 42 -8 42 4 0 13
-21 20 -46 9 -33 16 -44 27 -40 12 4 12 0 4 -22 -7 -18 -7 -28 0 -30 6 -2 9
-8 6 -13 -4 -5 1 -6 9 -3 9 3 16 10 16 16 0 5 -4 6 -10 3 -5 -3 -10 0 -10 8 0
14 27 32 43 29 16 -4 5 43 -18 74 -14 18 -21 35 -16 38 5 4 18 -5 29 -19 11
-14 23 -21 26 -16 8 12 -3 41 -15 41 -5 0 -7 11 -3 25 6 26 -4 48 -45 94 l-21
24 0 -29 c0 -28 -1 -28 -29 16 -15 25 -35 51 -44 59 -25 20 -20 32 11 25 l27
-7 -25 22 c-22 20 -22 21 -3 12 28 -14 36 -14 31 2 -3 6 -10 12 -16 12 -7 0
-11 3 -9 7 1 4 -7 14 -18 22 -20 15 -20 15 2 11 17 -3 21 1 18 21 -1 13 -10
33 -20 44 -10 12 -13 20 -7 20 7 0 12 -4 12 -10 0 -5 4 -10 8 -10 5 0 9 7 9
15 0 8 -3 12 -7 10 -6 -4 -70 49 -70 58 0 8 66 -17 125 -48 54 -28 95 -62 95
-80 0 -6 13 -26 29 -45 l30 -35 -25 53 c-27 57 -26 75 3 50 37 -31 43 -31 36
4 -3 18 -13 39 -22 46 -14 11 -14 11 3 5 13 -4 17 -3 12 5 -5 8 -2 10 10 5 14
-5 15 -3 4 18 -40 82 -45 89 -60 84 -8 -3 -11 -3 -8 1 4 3 -2 15 -12 27 -11
11 -18 23 -15 26 2 4 -12 17 -31 30 -19 13 -34 28 -34 33 0 12 -101 58 -112
51 -5 -3 -18 3 -29 13 -10 9 -19 14 -19 10 0 -3 -29 12 -64 34 -35 22 -68 40
-73 40 -5 0 -17 8 -27 19 -16 17 -13 18 73 25 93 7 238 39 255 56 6 6 11 10
12 10 1 0 1 -28 -1 -62z m-1505 -17 c8 -16 7 -19 -8 -17 -9 2 -16 6 -14 9 1 4
2 12 2 17 0 16 8 12 20 -9z m50 -1 c0 -13 -11 -13 -30 0 -12 8 -11 10 8 10 12
0 22 -4 22 -10z m86 -28 c-9 -8 -26 10 -26 26 1 15 2 15 15 -2 8 -11 13 -21
11 -24z m1761 -54 c-3 -8 -6 -5 -6 6 -1 11 2 17 5 13 3 -3 4 -12 1 -19z
m-1699 3 c17 -11 43 -61 32 -61 -5 0 -6 -7 -3 -17 5 -12 3 -14 -8 -8 -12 8
-12 6 0 -8 9 -11 10 -17 2 -17 -6 0 -10 -5 -8 -11 4 -20 -23 -22 -30 -2 -4 10
-17 33 -30 52 -35 51 -29 78 17 80 8 0 21 -3 28 -8z m-368 -11 c0 -5 -4 -10
-10 -10 -5 0 -10 5 -10 10 0 6 5 10 10 10 6 0 10 -4 10 -10z m-70 -21 c0 -6
-4 -7 -10 -4 -5 3 -10 11 -10 16 0 6 5 7 10 4 6 -3 10 -11 10 -16z m322 -11
c-7 -7 -12 -8 -12 -2 0 14 12 26 19 19 2 -3 -1 -11 -7 -17z m1963 -136 c-2 -2
-6 6 -10 19 -4 13 -10 17 -14 11 -4 -6 -11 -8 -17 -4 -8 5 -6 18 4 42 l14 35
13 -50 c7 -27 12 -51 10 -53z m-1502 72 c9 -4 17 -10 17 -15 0 -5 7 -9 15 -9
8 0 15 -4 15 -10 0 -5 -7 -10 -15 -10 -8 0 -15 -7 -15 -15 0 -12 5 -13 28 -3
15 7 35 18 45 26 13 12 17 12 17 2 0 -9 7 -7 21 6 22 19 22 19 10 -3 -6 -12
-16 -25 -21 -28 -12 -7 -14 -36 -2 -34 28 5 35 -2 19 -19 -10 -10 -14 -22 -10
-26 4 -4 1 -4 -8 -1 -8 3 -23 -1 -34 -9 -19 -15 -18 -15 13 -16 45 0 45 0 69
-29 16 -18 23 -21 24 -11 0 8 9 -12 20 -44 14 -43 16 -62 8 -67 -6 -4 -9 -11
-6 -16 3 -5 1 -15 -5 -23 -8 -13 -9 -13 -5 0 4 12 -11 15 -89 18 -60 2 -94 -1
-94 -7 0 -6 11 -13 24 -17 14 -3 27 -12 30 -20 4 -12 10 -12 26 -4 26 14 26 6
-1 -21 -25 -25 -19 -35 11 -19 25 14 25 14 34 -24 6 -22 4 -27 -7 -23 -11 4
-14 -1 -13 -19 0 -13 3 -24 6 -24 3 0 6 -10 7 -21 2 -26 -4 -21 -25 22 -10 18
-28 39 -42 48 l-25 15 25 -28 c21 -24 22 -27 5 -18 -34 17 -63 59 -69 97 -4
20 -11 46 -17 57 -6 11 -8 22 -5 25 9 10 -22 33 -46 34 -19 1 -20 2 -4 6 20 5
46 27 46 38 0 3 -4 3 -10 0 -5 -3 -18 -1 -27 4 -17 10 -17 10 0 11 9 0 17 4
17 9 0 5 9 7 20 4 12 -3 20 0 20 6 0 7 5 9 10 6 6 -3 10 -1 10 4 0 6 -9 11
-20 11 -11 0 -20 4 -20 9 0 6 -9 8 -20 6 -18 -4 -26 9 -21 38 0 4 -9 7 -21 8
-14 0 -2 8 32 21 l55 21 -40 18 c-22 10 -32 19 -22 19 9 0 17 4 17 9 0 5 -8
12 -17 14 -10 3 -2 5 17 6 34 2 34 2 15 17 -11 9 -13 14 -5 10 8 -3 23 -9 33
-12z m-503 -4 c0 -5 -4 -10 -10 -10 -15 0 1 -32 28 -57 14 -13 19 -23 13 -23
-18 0 -52 19 -79 43 -18 17 -25 19 -31 8 -6 -10 -11 -9 -25 4 -32 33 -19 45
51 45 29 0 53 -4 53 -10z m190 -54 c0 -3 -4 -8 -10 -11 -5 -3 -10 -1 -10 4 0
6 5 11 10 11 6 0 10 -2 10 -4z m30 -30 c0 -11 -19 -15 -25 -6 -3 5 1 10 9 10
9 0 16 -2 16 -4z m1657 -48 c-3 -7 -5 -2 -5 12 0 14 2 19 5 13 2 -7 2 -19 0
-25z m-1606 -71 c-10 -9 -11 -8 -5 6 3 10 9 15 12 12 3 -3 0 -11 -7 -18z m189
19 c0 -3 -4 -8 -10 -11 -5 -3 -10 -1 -10 4 0 6 5 11 10 11 6 0 10 -2 10 -4z
m-70 -56 c0 -5 -2 -10 -4 -10 -3 0 -8 5 -11 10 -3 6 -1 10 4 10 6 0 11 -4 11
-10z m-57 -15 c8 -8 18 -11 22 -7 5 4 5 1 0 -7 -5 -8 1 -21 15 -35 12 -11 30
-36 41 -54 11 -18 24 -30 29 -27 6 3 10 4 10 1 0 -2 3 -11 6 -20 3 -9 1 -16
-6 -16 -6 0 -8 5 -5 10 3 6 -3 10 -14 10 -11 0 -22 9 -26 21 -4 12 -23 40 -43
63 -61 70 -66 76 -54 76 6 0 17 -7 25 -15z m884 -47 c-3 -8 -6 -5 -6 6 -1 11
2 17 5 13 3 -3 4 -12 1 -19z m158 12 c3 -5 2 -10 -4 -10 -5 0 -13 5 -16 10 -3
6 -2 10 4 10 5 0 13 -4 16 -10z m-895 -62 c0 -18 -2 -20 -9 -8 -6 8 -7 18 -5
22 9 14 14 9 14 -14z m776 -46 c-9 -8 -26 10 -26 26 1 15 2 15 15 -2 8 -11 13
-21 11 -24z m1029 -12 c3 -5 1 -10 -4 -10 -6 0 -11 5 -11 10 0 6 2 10 4 10 3
0 8 -4 11 -10z m-1211 -15 c11 -8 16 -15 10 -15 -5 0 -18 7 -28 15 -11 8 -16
15 -10 15 5 0 18 -7 28 -15z m-560 -36 c14 -17 26 -36 26 -42 0 -7 -3 -7 -8
-1 -4 5 -20 24 -36 42 -17 17 -25 32 -19 32 6 0 23 -14 37 -31z m536 21 c0 -5
-2 -10 -4 -10 -3 0 -8 5 -11 10 -3 6 -1 10 4 10 6 0 11 -4 11 -10z m1380 0 c0
-5 -4 -10 -10 -10 -5 0 -10 5 -10 10 0 6 5 10 10 10 6 0 10 -4 10 -10z m-1195
-10 c3 -5 1 -10 -4 -10 -6 0 -11 5 -11 10 0 6 2 10 4 10 3 0 8 -4 11 -10z
m607 -12 c-7 -7 -12 -8 -12 -2 0 6 3 14 7 17 3 4 9 5 12 2 2 -3 -1 -11 -7 -17z
m-1381 -10 c11 -21 11 -22 -4 -9 -10 7 -17 17 -17 22 0 15 9 10 21 -13z m1800
-10 l22 -33 -31 29 c-34 32 -37 36 -23 36 5 0 20 -15 32 -32z m-1541 12 c0 -5
-2 -10 -4 -10 -3 0 -8 5 -11 10 -3 6 -1 10 4 10 6 0 11 -4 11 -10z m414 -21
c-6 -11 -24 -2 -24 11 0 5 7 7 15 4 8 -4 12 -10 9 -15z m200 -4 c3 -8 1 -15
-3 -15 -5 0 -11 7 -15 15 -3 8 -1 15 3 15 5 0 11 -7 15 -15z m-627 -37 c-3 -7
-5 -2 -5 12 0 14 2 19 5 13 2 -7 2 -19 0 -25z m777 -28 c6 -31 5 -33 -7 -18
-7 10 -26 22 -40 27 -15 6 -27 15 -27 20 0 6 7 8 15 5 9 -4 18 1 21 11 10 24
30 0 38 -45z m-94 39 c13 -9 12 -10 -2 -5 -20 6 -34 -10 -16 -17 9 -4 10 -6 1
-6 -15 -1 -26 16 -18 29 8 13 16 12 35 -1z m-5 -68 c-9 -16 -25 -3 -18 15 4
10 9 12 15 6 6 -6 7 -15 3 -21z m-457 -33 c-7 -20 -64 -49 -82 -42 -20 8 -21
20 0 28 12 4 15 2 10 -9 -8 -22 4 -18 30 10 24 26 49 34 42 13z m423 -36 c-6
-11 -7 -23 -3 -27 4 -3 2 -6 -3 -5 -25 5 -27 -2 -5 -25 13 -14 20 -28 17 -32
-4 -3 -1 -13 5 -21 10 -12 9 -14 -6 -11 -11 2 -28 20 -39 39 -10 19 -30 47
-45 62 -31 34 -21 50 11 20 28 -26 49 -29 40 -5 -4 10 -2 14 4 10 6 -4 14 0
17 9 4 9 9 14 12 11 3 -3 1 -14 -5 -25z m-77 -49 c16 -19 22 -34 16 -38 -6 -3
-22 8 -36 24 -14 17 -29 29 -33 27 -4 -3 -8 7 -9 20 -2 23 0 24 17 12 10 -7
30 -27 45 -45z m-530 3 c-21 -15 -30 -14 -19 3 3 6 14 11 23 11 13 0 13 -2 -4
-14z m1946 -51 c14 -19 14 -19 -2 -6 -10 7 -18 18 -18 24 0 6 1 8 3 6 1 -2 9
-13 17 -24z m40 -45 c0 -5 -4 -10 -9 -10 -6 0 -13 5 -16 10 -3 6 1 10 9 10 9
0 16 -4 16 -10z m-1635 -78 c-3 -3 -11 0 -18 7 -9 10 -8 11 6 5 10 -3 15 -9
12 -12z m257 -57 c13 -17 8 -31 -5 -14 -7 8 -20 18 -29 22 -10 3 -18 11 -18
17 0 11 40 -8 52 -25z m-645 3 c-3 -8 -6 -5 -6 6 -1 11 2 17 5 13 3 -3 4 -12
1 -19z m1418 -36 c-3 -3 -11 0 -18 7 -9 10 -8 11 6 5 10 -3 15 -9 12 -12z m59
-66 c40 -42 100 -122 104 -139 2 -6 -8 5 -23 26 -15 21 -29 36 -32 34 -5 -6
-79 69 -94 96 -17 30 10 20 45 -17z m-754 -59 c0 -5 -4 -5 -10 -2 -5 3 -10 14
-10 23 0 15 2 15 10 2 5 -8 10 -19 10 -23z m250 -28 c0 -6 -4 -7 -10 -4 -5 3
-10 11 -10 16 0 6 5 7 10 4 6 -3 10 -11 10 -16z m-473 -36 c-3 -10 -5 -2 -5
17 0 19 2 27 5 18 2 -10 2 -26 0 -35z m220 15 c-3 -8 -6 -5 -6 6 -1 11 2 17 5
13 3 -3 4 -12 1 -19z m1288 -38 c3 -5 1 -10 -4 -10 -6 0 -11 5 -11 10 0 6 2
10 4 10 3 0 8 -4 11 -10z m-1065 -4 c0 -3 -4 -8 -10 -11 -5 -3 -10 -1 -10 4 0
6 5 11 10 11 6 0 10 -2 10 -4z m1175 -16 c-4 -6 -11 -8 -16 -4 -5 3 -23 -2
-41 -10 -39 -20 -50 -13 -11 8 32 17 77 21 68 6z m-1158 -77 c-2 -16 -4 -5 -4
22 0 28 2 40 4 28 2 -13 2 -35 0 -50z m562 12 c0 -5 -6 1 -14 15 -8 14 -14 30
-14 35 0 6 6 -1 14 -15 8 -14 14 -29 14 -35z m591 26 c0 -5 -9 -11 -20 -14
-13 -3 -20 0 -20 9 0 8 9 14 20 14 11 0 20 -4 20 -9z m-1202 -46 c-3 -3 -9 2
-12 12 -6 14 -5 15 5 6 7 -7 10 -15 7 -18z m332 -165 c0 -5 -4 -10 -10 -10 -5
0 -10 5 -10 10 0 6 5 10 10 10 6 0 10 -4 10 -10z m750 -9 c14 -4 20 -9 15 -13
-6 -3 -28 0 -50 7 -30 10 -34 13 -15 13 14 0 36 -3 50 -7z m-630 -202 l35 -31
-33 19 c-19 10 -55 37 -80 61 l-47 43 45 -30 c25 -17 61 -45 80 -62z m-377 74
c-7 -2 -21 -2 -30 0 -10 3 -4 5 12 5 17 0 24 -2 18 -5z m314 -126 c23 -28 40
-53 39 -55 -14 -13 -52 33 -99 118 -17 32 -17 33 0 12 10 -12 37 -46 60 -75z
m743 28 c20 -24 6 -28 -15 -5 -10 11 -13 20 -8 20 6 0 16 -7 23 -15z m-500 -5
c13 -8 13 -10 -2 -10 -9 0 -20 5 -23 10 -8 13 5 13 25 0z m365 -38 c-3 -3 -11
0 -18 7 -9 10 -8 11 6 5 10 -3 15 -9 12 -12z m118 -102 c8 0 8 -3 -2 -9 -11
-7 -25 1 -53 30 -50 51 -49 61 2 15 22 -20 46 -36 53 -36z m-184 42 c-9 -14 1
-29 65 -96 42 -44 74 -81 73 -83 -2 -1 -13 6 -25 17 -12 11 -24 20 -28 20 -3
0 -15 11 -26 25 -11 14 -26 25 -34 25 -21 0 -17 -9 16 -37 45 -38 36 -49 -10
-12 -22 18 -39 37 -37 43 2 6 -4 22 -14 35 -11 13 -19 29 -19 37 0 7 -6 15
-12 17 -7 3 -1 6 14 6 15 1 30 6 33 11 3 6 8 10 11 10 2 0 -1 -8 -7 -18z m416
-12 c3 -5 1 -10 -4 -10 -6 0 -11 5 -11 10 0 6 2 10 4 10 3 0 8 -4 11 -10z
m-953 -54 c16 -29 -7 -11 -33 27 l-23 32 23 -20 c13 -11 27 -28 33 -39z m261
5 c-2 -3 -16 8 -31 24 l-27 28 31 -24 c17 -13 30 -26 27 -28z m515 30 c24 -21
29 -41 10 -41 -14 0 -58 40 -58 52 0 14 24 8 48 -11z m-88 -43 c0 -5 -3 -8 -7
-8 -10 0 -43 32 -43 42 0 11 49 -24 50 -34z m265 32 c3 -5 1 -10 -4 -10 -6 0
-11 5 -11 10 0 6 2 10 4 10 3 0 8 -4 11 -10z m-117 -25 c-3 -3 -9 2 -12 12 -6
14 -5 15 5 6 7 -7 10 -15 7 -18z m42 -11 c0 -2 -7 -4 -15 -4 -8 0 -15 4 -15
10 0 5 7 7 15 4 8 -4 15 -8 15 -10z m35 -4 c3 -5 2 -10 -4 -10 -5 0 -13 5 -16
10 -3 6 -2 10 4 10 5 0 13 -4 16 -10z m-720 -20 c10 -11 16 -20 13 -20 -3 0
-13 9 -23 20 -10 11 -16 20 -13 20 3 0 13 -9 23 -20z m207 5 c37 0 54 -3 47
-10 -14 -14 -84 -8 -116 10 -15 9 -19 13 -8 8 11 -4 46 -8 77 -8z m468 -15 c0
-5 -2 -10 -4 -10 -3 0 -8 5 -11 10 -3 6 -1 10 4 10 6 0 11 -4 11 -10z m-25
-10 c3 -6 -1 -7 -9 -4 -18 7 -21 14 -7 14 6 0 13 -4 16 -10z m-140 -70 c3 -5
1 -10 -4 -10 -6 0 -11 5 -11 10 0 6 2 10 4 10 3 0 8 -4 11 -10z m-494 -37 c13
-16 12 -17 -3 -4 -10 7 -18 15 -18 17 0 8 8 3 21 -13z m594 -3 c3 -5 1 -10 -4
-10 -6 0 -11 5 -11 10 0 6 2 10 4 10 3 0 8 -4 11 -10z m36 -37 c13 -16 12 -17
-3 -4 -17 13 -22 21 -14 21 2 0 10 -8 17 -17z m-508 -102 c-3 -11 -12 -22 -20
-25 -14 -6 -11 5 10 32 13 17 16 15 10 -7z m737 -31 c0 -5 -8 -10 -17 -10 -15
0 -16 2 -3 10 19 12 20 12 20 0z m30 -15 c-7 -9 -15 -13 -19 -10 -3 3 1 10 9
15 21 14 24 12 10 -5z m-760 -9 c0 -8 -11 -11 -30 -8 -35 5 -33 16 4 18 15 1
26 -3 26 -10z m-413 -128 c-3 -8 -6 -5 -6 6 -1 11 2 17 5 13 3 -3 4 -12 1 -19z"/>
<path d="M2025 4700 c-3 -5 -1 -10 4 -10 6 0 11 5 11 10 0 6 -2 10 -4 10 -3 0
-8 -4 -11 -10z"/>
<path d="M1750 4609 c0 -5 5 -7 10 -4 6 3 10 8 10 11 0 2 -4 4 -10 4 -5 0 -10
-5 -10 -11z"/>
<path d="M1560 4570 c0 -5 5 -10 11 -10 5 0 7 5 4 10 -3 6 -8 10 -11 10 -2 0
-4 -4 -4 -10z"/>
<path d="M1700 4159 c0 -5 5 -7 10 -4 6 3 10 8 10 11 0 2 -4 4 -10 4 -5 0 -10
-5 -10 -11z"/>
<path d="M1286 4061 c-4 -5 -2 -12 3 -15 5 -4 12 -2 15 3 4 5 2 12 -3 15 -5 4
-12 2 -15 -3z"/>
<path d="M1340 4021 c0 -6 -8 -7 -17 -4 -16 6 -16 5 -4 -10 7 -9 17 -17 21
-17 12 0 20 29 10 35 -6 4 -10 2 -10 -4z"/>
<path d="M2100 4020 c-12 -8 -10 -10 8 -10 13 0 20 4 17 10 -7 12 -6 12 -25 0z"/>
<path d="M1300 3975 c0 -8 4 -15 10 -15 5 0 7 7 4 15 -4 8 -8 15 -10 15 -2 0
-4 -7 -4 -15z"/>
<path d="M1435 3982 c-25 -18 -36 -40 -24 -48 7 -4 9 -3 5 4 -3 6 4 18 16 26
12 9 20 18 17 20 -2 3 -9 2 -14 -2z"/>
<path d="M1898 3983 c7 -3 16 -2 19 1 4 3 -2 6 -13 5 -11 0 -14 -3 -6 -6z"/>
<path d="M1465 3970 c3 -5 8 -10 11 -10 2 0 4 5 4 10 0 6 -5 10 -11 10 -5 0
-7 -4 -4 -10z"/>
<path d="M1970 3968 c0 -4 6 -8 14 -8 8 0 17 4 20 8 2 4 -4 8 -15 8 -10 0 -19
-4 -19 -8z"/>
<path d="M1360 3960 c0 -5 5 -10 11 -10 5 0 7 5 4 10 -3 6 -8 10 -11 10 -2 0
-4 -4 -4 -10z"/>
<path d="M1476 3945 c-18 -14 -18 -14 1 -12 11 0 20 7 20 14 0 7 -1 13 -1 13
-1 0 -9 -7 -20 -15z"/>
<path d="M1870 3910 c6 -11 12 -20 14 -20 2 0 2 9 -1 20 -3 11 -9 20 -15 20
-5 0 -4 -9 2 -20z"/>
<path d="M1458 3893 c7 -3 16 -2 19 1 4 3 -2 6 -13 5 -11 0 -14 -3 -6 -6z"/>
<path d="M1890 3852 c0 -29 -26 -62 -48 -62 -16 0 -15 17 1 23 6 2 9 7 5 11
-7 9 -48 -11 -48 -23 0 -5 10 -11 23 -15 18 -5 20 -8 7 -16 -13 -9 -13 -12 3
-25 30 -22 49 -7 62 50 2 6 4 12 5 15 6 16 5 62 -2 66 -4 3 -8 -8 -8 -24z"/>
<path d="M1900 3760 c-8 -5 -11 -12 -7 -16 4 -4 13 -2 19 4 15 15 7 24 -12 12z"/>
<path d="M2027 3746 c-7 -17 18 -40 33 -31 15 10 12 23 -9 34 -14 8 -20 7 -24
-3z"/>
<path d="M1501 3704 c0 -11 3 -14 6 -6 3 7 2 16 -1 19 -3 4 -6 -2 -5 -13z"/>
<path d="M1720 3661 c0 -16 20 -23 34 -12 7 6 17 7 21 3 5 -4 5 -1 1 6 -8 14
-56 17 -56 3z"/>
<path d="M1603 3653 c-7 -3 -13 -11 -13 -18 0 -7 -8 -16 -17 -18 -11 -3 -7 -5
10 -6 15 0 27 4 27 10 0 5 5 7 10 4 6 -3 10 1 10 9 0 18 -10 25 -27 19z"/>
<path d="M1673 3622 c-7 -7 -18 -10 -24 -6 -8 4 -9 3 -5 -4 5 -8 -2 -12 -21
-12 -16 0 -46 -12 -67 -26 -21 -15 -46 -24 -57 -21 -10 3 -22 1 -25 -5 -3 -5
-12 -7 -20 -4 -8 3 -14 1 -14 -3 0 -12 30 -22 42 -14 6 3 8 1 4 -5 -9 -14 21
-42 45 -42 11 0 17 -4 14 -10 -3 -5 -1 -10 4 -10 17 0 24 -2 49 -11 15 -6 22
-5 22 4 1 7 6 6 13 -5 9 -12 17 -14 30 -7 13 7 17 6 17 -4 0 -8 7 -20 15 -27
12 -10 15 -10 15 4 0 11 9 16 26 16 14 0 23 -4 19 -10 -3 -5 -13 -6 -22 -3
-11 4 -14 3 -9 -5 4 -8 17 -9 34 -5 15 3 32 6 39 6 9 0 10 4 2 13 -7 9 -5 13
8 16 10 2 24 -3 31 -12 11 -13 12 -12 8 5 -9 33 7 48 23 22 13 -20 13 -21 -2
-8 -18 14 -22 5 -9 -16 14 -22 35 3 29 33 -4 16 -4 23 -1 17 8 -18 27 -16 20
2 -3 9 1 16 9 16 8 1 24 3 35 4 11 1 25 3 30 4 5 0 9 7 7 14 -1 6 6 11 15 11
33 -3 9 13 -36 25 -25 6 -48 16 -51 21 -4 6 -25 20 -48 32 -49 26 -171 32
-194 10z m142 -32 c3 5 15 10 26 10 11 0 18 -4 15 -9 -4 -5 0 -11 6 -14 7 -2
-3 -6 -23 -8 -29 -4 -40 0 -50 16 -11 18 -10 19 4 7 10 -9 17 -10 22 -2z
m-130 -20 c3 -5 1 -10 -4 -10 -6 0 -11 5 -11 10 0 6 2 10 4 10 3 0 8 -4 11
-10z m65 0 c0 -5 -2 -10 -4 -10 -3 0 -8 5 -11 10 -3 6 -1 10 4 10 6 0 11 -4
11 -10z m160 -42 c0 -4 -19 -16 -42 -27 -31 -14 -49 -16 -72 -10 -37 11 -41
11 -33 2 4 -3 0 -14 -8 -23 -14 -15 -19 -15 -65 -1 -28 8 -50 18 -50 21 0 3
16 12 35 19 25 9 40 9 55 1 14 -7 20 -7 20 0 0 6 14 9 34 7 18 -2 40 1 49 8
18 13 77 15 77 3z"/>
<path d="M1720 3486 c0 -8 8 -13 18 -11 9 2 19 4 22 4 7 2 -23 21 -32 21 -5 0
-8 -6 -8 -14z"/>
<path d="M1288 3543 c7 -3 16 -2 19 1 4 3 -2 6 -13 5 -11 0 -14 -3 -6 -6z"/>
<path d="M1423 3505 c-17 -19 -16 -25 2 -25 8 0 15 2 15 4 0 2 3 11 6 20 8 20
-7 20 -23 1z"/>
<path d="M1456 3437 c3 -10 9 -15 12 -12 3 3 0 11 -7 18 -10 9 -11 8 -5 -6z"/>
<path d="M1600 3430 c0 -10 26 -20 53 -19 21 0 21 1 -3 11 -35 15 -50 18 -50
8z"/>
<path d="M1400 3415 c7 -8 17 -15 22 -15 5 0 3 7 -6 15 -8 8 -18 15 -22 15 -3
0 -1 -7 6 -15z"/>
<path d="M1924 3419 c-10 -17 12 -33 33 -24 16 8 16 9 -5 12 -12 3 -20 9 -17
14 4 5 4 9 1 9 -3 0 -8 -5 -12 -11z"/>
<path d="M1985 3391 c-6 -11 9 -23 19 -14 9 9 7 23 -3 23 -6 0 -12 -4 -16 -9z"/>
<path d="M1516 3313 c-6 -14 -5 -15 5 -6 7 7 10 15 7 18 -3 3 -9 -2 -12 -12z"/>
<path d="M1330 4375 c0 -8 0 -18 -1 -22 0 -4 4 -9 10 -11 6 -2 11 5 11 16 0
11 8 23 18 25 10 3 6 5 -10 6 -19 1 -28 -4 -28 -14z"/>
<path d="M2121 2480 c14 -31 19 -36 19 -24 0 6 -7 19 -16 30 -14 18 -14 18 -3
-6z"/>
<path d="M2120 2406 c0 -10 50 -86 57 -86 5 0 -18 44 -27 50 -4 3 -12 14 -18
25 -6 11 -12 16 -12 11z"/>
<path d="M2018 2365 c5 -11 12 -27 15 -35 5 -13 6 -13 6 1 1 8 -6 24 -15 35
-15 19 -15 19 -6 -1z"/>
<path d="M2050 2355 c0 -5 5 -17 10 -25 5 -8 10 -10 10 -5 0 6 -5 17 -10 25
-5 8 -10 11 -10 5z"/>
<path d="M2065 2293 c3 -12 1 -33 -6 -45 -6 -13 -8 -20 -4 -16 4 4 27 -4 51
-18 24 -14 44 -21 44 -15 0 6 -9 15 -20 21 -11 6 -20 17 -20 25 0 8 -3 15 -8
15 -4 0 -15 12 -25 28 -15 22 -17 23 -12 5z"/>
<path d="M2070 2205 c7 -9 15 -13 17 -11 7 7 -7 26 -19 26 -6 0 -6 -6 2 -15z"/>
<path d="M2100 2198 c0 -3 14 -17 30 -33 17 -16 30 -24 30 -18 0 7 -13 21 -30
33 -16 12 -30 20 -30 18z"/>
<path d="M2170 2130 c0 -5 5 -10 11 -10 5 0 7 5 4 10 -3 6 -8 10 -11 10 -2 0
-4 -4 -4 -10z"/>
<path d="M2091 2095 c-1 -13 58 -79 64 -73 3 2 -11 22 -30 44 -19 21 -34 35
-34 29z"/>
<path d="M2063 1968 c-10 -87 -9 -95 11 -126 11 -17 26 -30 33 -28 6 3 14 -6
17 -20 4 -13 12 -24 19 -24 6 0 26 -28 43 -63 17 -34 36 -61 43 -59 6 1 14 -5
17 -13 4 -8 10 -15 15 -15 6 0 6 7 1 18 -5 9 -7 24 -5 32 4 13 3 13 -6 0 -8
-11 -11 -12 -11 -2 0 8 -5 10 -12 6 -8 -5 -9 -2 -5 10 4 10 7 20 7 22 0 3 5 2
10 -1 6 -3 10 1 10 10 0 13 -4 14 -20 5 -24 -13 -41 -5 -34 14 3 8 -1 20 -8
27 -9 7 -12 25 -10 43 4 27 3 29 -11 18 -12 -10 -17 -10 -23 -1 -4 8 -3 9 5 5
22 -14 24 27 4 68 -12 23 -29 65 -39 94 -30 88 -40 84 -51 -20z m30 -88 c3
-11 1 -18 -4 -14 -5 3 -9 12 -9 20 0 20 7 17 13 -6z m38 -37 c-9 -16 -10 -15
-11 8 0 14 3 29 8 33 12 12 14 -22 3 -41z"/>
<path d="M2140 1994 c0 -5 7 -19 15 -30 8 -10 15 -14 15 -8 0 5 -7 19 -15 30
-8 10 -15 14 -15 8z"/>
<path d="M1997 1958 c-7 -25 -3 -33 12 -23 13 8 15 45 2 45 -5 0 -11 -10 -14
-22z"/>
<path d="M1750 1946 c0 -2 7 -6 15 -10 8 -3 15 -1 15 4 0 6 -7 10 -15 10 -8 0
-15 -2 -15 -4z"/>
<path d="M2170 1931 c0 -20 28 -62 35 -51 4 6 -1 22 -9 35 -17 26 -26 31 -26
16z"/>
<path d="M1881 1919 c-13 -5 -33 -7 -44 -3 -12 4 -17 2 -13 -4 12 -19 56 -20
79 -1 24 20 16 23 -22 8z"/>
<path d="M2330 1920 c0 -5 5 -10 11 -10 5 0 7 5 4 10 -3 6 -8 10 -11 10 -2 0
-4 -4 -4 -10z"/>
<path d="M1713 1893 c9 -2 23 -2 30 0 6 3 -1 5 -18 5 -16 0 -22 -2 -12 -5z"/>
<path d="M2216 1875 c-7 -19 21 -65 40 -65 10 0 8 9 -7 38 -27 47 -25 46 -33
27z"/>
<path d="M2440 1850 c0 -4 11 -15 24 -23 22 -15 24 -15 19 3 -5 18 -43 36 -43
20z"/>
<path d="M2196 1823 c4 -16 11 -37 17 -47 9 -18 10 -18 19 -2 7 13 5 22 -6 35
-9 10 -16 23 -16 29 0 7 -5 12 -10 12 -6 0 -8 -11 -4 -27z"/>
<path d="M2286 1825 c4 -8 10 -15 15 -15 4 0 6 7 3 15 -4 8 -10 15 -15 15 -4
0 -6 -7 -3 -15z"/>
<path d="M1925 1821 c-29 -7 -29 -7 -6 -13 15 -4 29 -1 38 8 15 15 14 15 -32
5z"/>
<path d="M2010 1821 c0 -5 -8 -11 -17 -13 -16 -3 -16 -5 3 -16 19 -10 22 -9
22 13 0 14 -2 25 -4 25 -2 0 -4 -4 -4 -9z"/>
<path d="M1970 1775 c7 -8 20 -15 29 -15 13 1 13 3 -3 15 -26 19 -42 19 -26 0z"/>
<path d="M2275 1780 c4 -6 11 -8 16 -5 14 9 11 15 -7 15 -8 0 -12 -5 -9 -10z"/>
<path d="M2520 1777 c0 -9 9 -21 20 -27 11 -6 20 -7 20 -2 0 5 -9 17 -20 27
-18 16 -20 16 -20 2z"/>
<path d="M2290 1690 c-13 -8 -12 -10 3 -10 9 0 17 5 17 10 0 12 -1 12 -20 0z"/>
<path d="M2335 1657 c-4 -11 -14 -16 -22 -13 -9 4 -13 1 -10 -6 2 -7 11 -12
20 -10 11 2 15 -2 11 -12 -3 -8 -1 -17 4 -20 13 -8 21 35 11 60 -6 18 -7 18
-14 1z"/>
<path d="M2570 1631 c0 -6 4 -13 10 -16 6 -3 7 1 4 9 -7 18 -14 21 -14 7z"/>
<path d="M2590 1581 c0 -5 5 -13 10 -16 6 -3 10 -2 10 4 0 5 -4 13 -10 16 -5
3 -10 2 -10 -4z"/>
<path d="M2270 1560 c0 -5 5 -10 11 -10 5 0 7 5 4 10 -3 6 -8 10 -11 10 -2 0
-4 -4 -4 -10z"/>
<path d="M2630 1532 c0 -5 12 -19 27 -33 l27 -24 -23 33 c-23 32 -31 39 -31
24z"/>
<path d="M2590 1491 c0 -6 4 -13 10 -16 6 -3 7 1 4 9 -7 18 -14 21 -14 7z"/>
<path d="M2660 1390 c12 -16 26 -30 33 -30 6 0 -2 14 -18 30 -16 17 -30 30
-33 30 -2 0 6 -13 18 -30z"/>
<path d="M2460 1374 c8 -8 23 -20 34 -26 19 -10 18 -8 -3 16 -26 27 -53 37
-31 10z"/>
<path d="M2449 1333 c12 -24 31 -39 31 -25 0 5 -10 17 -21 28 -22 19 -22 19
-10 -3z"/>
<path d="M2785 1310 c3 -5 8 -10 11 -10 2 0 4 5 4 10 0 6 -5 10 -11 10 -5 0
-7 -4 -4 -10z"/>
<path d="M2770 1233 c0 -6 8 -17 18 -24 16 -13 16 -13 2 6 -8 11 -16 22 -17
24 -2 2 -3 0 -3 -6z"/>
<path d="M2820 1201 c0 -5 5 -13 10 -16 6 -3 10 -2 10 4 0 5 -4 13 -10 16 -5
3 -10 2 -10 -4z"/>
<path d="M2935 1060 c-3 -5 -1 -10 4 -10 6 0 11 5 11 10 0 6 -2 10 -4 10 -3 0
-8 -4 -11 -10z"/>
<path d="M2930 1030 c0 -5 4 -10 9 -10 6 0 13 5 16 10 3 6 -1 10 -9 10 -9 0
-16 -4 -16 -10z"/>
<path d="M1185 2460 c-3 -5 -1 -10 4 -10 6 0 11 5 11 10 0 6 -2 10 -4 10 -3 0
-8 -4 -11 -10z"/>
<path d="M1030 2439 c57 -26 118 -34 150 -20 24 11 23 11 -8 6 -19 -3 -31 -1
-27 5 3 5 -9 6 -29 3 -22 -3 -46 1 -67 11 -17 9 -39 16 -48 15 -9 0 4 -9 29
-20z"/>
<path d="M1050 2330 c0 -5 5 -10 11 -10 5 0 7 5 4 10 -3 6 -8 10 -11 10 -2 0
-4 -4 -4 -10z"/>
<path d="M1950 2180 c0 -5 5 -10 10 -10 6 0 10 5 10 10 0 6 -4 10 -10 10 -5 0
-10 -4 -10 -10z"/>
<path d="M3065 860 c3 -5 8 -10 11 -10 2 0 4 5 4 10 0 6 -5 10 -11 10 -5 0 -7
-4 -4 -10z"/>
<path d="M2083 5067 c4 -10 7 -23 7 -28 0 -6 3 -8 8 -5 4 2 15 -9 24 -25 19
-32 17 -37 -6 -13 -9 8 -16 11 -16 6 0 -5 7 -15 15 -22 8 -7 15 -24 15 -37 0
-27 23 -113 47 -181 11 -28 21 -41 30 -38 8 3 13 -2 13 -13 0 -10 8 -42 17
-71 13 -41 18 -48 24 -34 6 14 8 11 8 -13 1 -18 17 -67 36 -109 19 -41 35 -80
35 -85 0 -5 4 -9 9 -9 4 0 4 23 -1 51 -5 28 -7 57 -4 65 3 8 0 14 -6 14 -9 0
-9 3 -1 11 7 7 8 18 3 28 -5 9 -16 41 -26 71 -9 30 -31 84 -50 120 -18 36 -38
78 -44 93 -6 17 -14 25 -22 21 -6 -4 -8 -3 -5 2 3 6 -8 29 -24 53 -17 27 -27
52 -24 65 3 14 -7 33 -32 61 -20 22 -33 32 -30 22z"/>
<path d="M2168 4954 c6 -11 19 -27 28 -35 16 -13 16 -12 6 7 -6 11 -19 27 -28
35 -16 13 -16 12 -6 -7z"/>
<path d="M2570 3355 c0 -5 5 -17 10 -25 5 -8 10 -10 10 -5 0 6 -5 17 -10 25
-5 8 -10 11 -10 5z"/>
<path d="M2560 3313 c0 -6 8 -17 18 -24 16 -13 16 -13 2 6 -8 11 -16 22 -17
24 -2 2 -3 0 -3 -6z"/>
<path d="M2715 3170 c-7 -11 16 -11 60 0 28 7 28 8 -12 9 -23 0 -45 -3 -48 -9z"/>
<path d="M2810 3170 c0 -5 11 -10 25 -10 14 0 28 0 32 -1 4 0 9 4 11 10 2 7
-11 11 -32 11 -20 0 -36 -4 -36 -10z"/>
<path d="M2495 2840 c-3 -5 -1 -10 4 -10 6 0 11 5 11 10 0 6 -2 10 -4 10 -3 0
-8 -4 -11 -10z"/>
<path d="M2591 2814 c0 -11 3 -14 6 -6 3 7 2 16 -1 19 -3 4 -6 -2 -5 -13z"/>
<path d="M2718 2808 c6 -6 18 -8 28 -6 14 3 12 5 -9 10 -19 3 -25 2 -19 -4z"/>
<path d="M2813 2793 c9 -2 25 -2 35 0 9 3 1 5 -18 5 -19 0 -27 -2 -17 -5z"/>
<path d="M2589 2778 c-9 -85 -7 -107 5 -96 9 9 11 22 5 40 -4 15 -5 36 -2 48
3 11 3 20 -1 20 -3 0 -7 -6 -7 -12z"/>
<path d="M2898 2783 c7 -3 16 -2 19 1 4 3 -2 6 -13 5 -11 0 -14 -3 -6 -6z"/>
<path d="M2571 2563 c1 -48 3 -53 9 -28 11 45 11 85 0 85 -6 0 -9 -25 -9 -57z"/>
<path d="M2562 2475 c0 -16 2 -22 5 -12 2 9 2 23 0 30 -3 6 -5 -1 -5 -18z"/>
<path d="M2561 2414 c0 -11 3 -14 6 -6 3 7 2 16 -1 19 -3 4 -6 -2 -5 -13z"/>
<path d="M3419 2272 c6 -11 11 -32 11 -46 0 -16 6 -26 15 -26 18 0 20 17 3 23
-7 2 2 4 21 5 39 1 56 12 18 12 -14 0 -29 5 -32 10 -4 6 6 10 21 10 38 0 19
17 -30 26 -36 6 -38 6 -27 -14z"/>
<path d="M2995 2240 c3 -5 8 -10 11 -10 2 0 4 5 4 10 0 6 -5 10 -11 10 -5 0
-7 -4 -4 -10z"/>
<path d="M3724 2205 c-3 -8 -1 -27 4 -42 10 -27 10 -26 11 15 1 43 -5 54 -15
27z"/>
<path d="M3678 2137 c-23 -57 -39 -132 -32 -151 5 -14 9 -14 34 -1 31 16 45
41 28 51 -6 4 -9 25 -6 53 3 25 2 56 -1 68 -5 20 -8 18 -23 -20z"/>
<path d="M2496 2113 c10 -40 14 -41 14 -5 0 18 -5 32 -10 32 -6 0 -8 -11 -4
-27z"/>
<path d="M3732 2055 c0 -16 2 -22 5 -12 2 9 2 23 0 30 -3 6 -5 -1 -5 -18z"/>
<path d="M3257 2033 c-3 -5 3 -15 14 -22 18 -11 20 -10 17 5 -3 19 -23 30 -31
17z"/>
<path d="M3332 1985 c6 -14 15 -25 20 -25 12 0 9 12 -6 33 -19 25 -27 21 -14
-8z"/>
<path d="M3375 1950 c3 -5 11 -10 16 -10 6 0 7 5 4 10 -3 6 -11 10 -16 10 -6
0 -7 -4 -4 -10z"/>
<path d="M3288 1928 c12 -12 24 -19 27 -16 8 7 -23 38 -38 38 -6 0 -2 -10 11
-22z"/>
<path d="M1202 1570 c0 -14 2 -19 5 -12 2 6 2 18 0 25 -3 6 -5 1 -5 -13z"/>
<path d="M3732 1485 c0 -16 2 -22 5 -12 2 9 2 23 0 30 -3 6 -5 -1 -5 -18z"/>
<path d="M1211 1370 c0 -33 1 -34 11 -12 8 17 8 26 0 34 -9 9 -12 4 -11 -22z"/>
<path d="M3710 1302 c0 -5 7 -17 15 -28 14 -18 14 -18 15 9 0 17 -5 27 -15 27
-8 0 -15 -4 -15 -8z"/>
<path d="M3354 1289 c-4 -8 -3 -9 4 -5 7 4 12 2 12 -3 0 -6 5 -11 11 -11 13 0
7 22 -8 27 -6 2 -15 -1 -19 -8z"/>
<path d="M1215 1178 c5 -83 26 -195 66 -343 6 -22 20 -58 30 -79 10 -22 19
-46 19 -53 0 -7 4 -13 9 -13 5 0 22 -20 38 -45 34 -54 54 -61 22 -7 -26 42
-30 51 -54 110 -10 23 -22 42 -27 42 -5 0 -7 4 -3 10 3 5 1 17 -4 27 -32 60
-66 196 -86 343 l-14 105 4 -97z"/>
<path d="M3450 1253 c0 -4 5 -15 10 -23 8 -13 10 -13 10 2 0 9 -4 20 -10 23
-5 3 -10 3 -10 -2z"/>
<path d="M1421 1234 c0 -11 3 -14 6 -6 3 7 2 16 -1 19 -3 4 -6 -2 -5 -13z"/>
<path d="M3511 1200 c6 -16 15 -30 20 -30 5 0 9 -10 10 -22 0 -13 3 -17 6 -10
6 15 -26 92 -38 92 -4 0 -3 -13 2 -30z"/>
<path d="M3490 1185 c0 -18 19 -40 26 -32 4 4 0 15 -9 24 -9 10 -17 13 -17 8z"/>
<path d="M3300 1070 c8 -5 20 -10 25 -10 6 0 3 5 -5 10 -8 5 -19 10 -25 10 -5
0 -3 -5 5 -10z"/>
<path d="M3660 966 c0 -9 5 -16 10 -16 6 0 10 4 10 9 0 6 -4 13 -10 16 -5 3
-10 -1 -10 -9z"/>
<path d="M3567 889 c7 -7 15 -10 18 -7 3 3 -2 9 -12 12 -14 6 -15 5 -6 -5z"/>
<path d="M3585 860 c3 -5 8 -10 11 -10 2 0 4 5 4 10 0 6 -5 10 -11 10 -5 0 -7
-4 -4 -10z"/>
<path d="M185 852 c39 -28 51 -160 20 -208 -8 -13 -15 -31 -15 -41 0 -28 -81
-202 -139 -297 -28 -47 -51 -89 -51 -95 0 -5 15 -12 33 -14 l32 -4 -32 -1
c-28 -2 -33 -6 -33 -27 0 -28 12 -32 30 -10 7 8 18 15 24 15 6 0 -2 -11 -17
-24 -16 -14 -26 -30 -22 -35 3 -6 1 -11 -4 -11 -6 0 -11 -12 -11 -26 0 -17 4
-23 12 -18 9 6 9 3 -1 -9 -26 -32 -7 -45 66 -43 37 1 77 6 87 11 14 6 17 5 12
-3 -4 -7 -1 -12 8 -12 9 0 16 6 16 13 0 9 2 9 8 0 10 -16 91 -13 120 5 12 8
22 10 22 4 0 -6 -6 -13 -12 -15 -7 -3 -3 -6 10 -6 12 -1 22 4 22 9 0 6 7 10
15 10 8 0 15 -4 15 -10 0 -5 7 -10 15 -10 8 0 15 5 15 10 0 6 7 10 15 10 8 0
15 -4 15 -10 0 -5 5 -10 10 -10 6 0 10 7 10 15 0 8 -7 15 -15 15 -19 0 -15 47
5 60 7 4 10 15 7 24 -5 12 -14 15 -34 10 l-28 -7 20 22 c18 20 18 24 4 34 -8
7 -18 20 -22 30 -5 13 -13 16 -27 12 -12 -4 -20 -2 -20 5 0 8 -9 10 -27 5 -30
-7 -31 -11 31 67 21 26 42 45 47 42 16 -10 9 -24 -11 -24 -24 0 -25 -6 -6 -26
19 -18 30 -18 22 1 -8 22 12 18 26 -5 16 -25 28 -26 28 -1 0 12 -8 21 -21 23
l-21 3 22 28 c12 15 29 27 38 26 13 0 11 -3 -5 -11 -27 -13 -28 -21 -8 -38 12
-10 16 -9 21 4 6 16 8 16 25 0 24 -22 36 -12 13 10 -9 10 -14 25 -11 37 4 15
2 19 -9 15 -8 -3 -14 -1 -14 4 0 7 63 7 80 0 3 -1 13 -1 24 0 10 1 22 -4 27
-11 6 -10 11 -10 22 -1 7 7 17 9 20 5 13 -13 7 -23 -15 -24 -17 -1 -18 -3 -6
-6 20 -5 13 -33 -8 -33 -8 0 -13 -3 -13 -8 3 -18 -3 -46 -8 -34 -2 6 -10 12
-16 12 -8 0 -8 -3 1 -12 12 -12 72 -17 72 -5 0 4 -10 7 -21 7 -20 0 -21 1 -5
22 9 13 19 31 23 41 3 9 9 17 14 17 5 0 9 8 9 17 0 9 3 13 7 10 3 -4 12 -2 20
4 10 9 13 6 14 -17 0 -17 3 -22 6 -14 7 18 23 30 42 30 9 0 11 -7 7 -25 -8
-31 6 -33 19 -2 6 12 17 21 24 19 7 -1 19 2 26 8 9 7 14 8 17 0 1 -5 21 -12
43 -13 22 -2 48 -7 58 -12 10 -4 23 -2 31 4 11 9 16 9 23 -1 4 -7 17 -13 28
-13 11 0 19 -5 18 -11 -1 -7 6 -10 17 -7 11 3 20 9 20 14 0 5 6 9 14 9 10 0
12 -7 9 -21 -5 -19 -3 -21 25 -17 18 2 32 0 32 -5 0 -5 7 -7 15 -3 9 3 19 -3
25 -14 6 -11 16 -20 22 -20 6 0 19 -7 29 -16 11 -9 19 -11 23 -5 4 5 -3 15
-14 21 -11 6 -20 17 -20 25 0 8 -7 15 -15 15 -8 0 -15 9 -15 20 0 10 -6 23
-12 27 -7 4 -20 20 -28 35 -8 14 -42 67 -75 118 -52 79 -63 90 -84 87 -14 -3
-34 0 -45 7 -23 13 -113 78 -138 100 -27 24 -58 37 -69 30 -16 -9 -109 -6
-149 6 -66 20 -460 120 -472 120 -8 0 -9 -3 -3 -8z m452 -408 c-3 -3 -12 -4
-19 -1 -8 3 -5 6 6 6 11 1 17 -2 13 -5z m-157 -54 c0 -5 -4 -10 -10 -10 -5 0
-10 5 -10 10 0 6 5 10 10 10 6 0 10 -4 10 -10z m525 -18 c-3 -3 -11 0 -18 7
-9 10 -8 11 6 5 10 -3 15 -9 12 -12z m-555 -26 c0 -3 -7 -3 -15 0 -8 4 -15 13
-15 21 0 12 2 12 15 -1 8 -8 15 -17 15 -20z m-130 -20 c0 -2 -7 -7 -16 -10 -8
-3 -12 -2 -9 4 6 10 25 14 25 6z m45 -6 c-28 -12 -37 -12 -30 0 3 6 16 10 28
9 21 0 21 -1 2 -9z m-180 -30 c-3 -5 -14 -10 -23 -10 -15 0 -15 2 -2 10 20 13
33 13 25 0z m105 -5 c-7 -8 -17 -15 -22 -15 -6 0 -5 7 2 15 7 8 17 15 22 15 6
0 5 -7 -2 -15z m56 3 c-3 -7 -9 -21 -12 -30 -7 -21 -44 -24 -44 -4 0 7 10 21
23 29 27 19 41 21 33 5z m-251 -48 c-10 -11 -23 -20 -29 -20 -6 0 0 9 14 20
32 25 38 25 15 0z m115 11 c0 -5 -7 -12 -16 -15 -24 -9 -28 -7 -14 9 14 17 30
20 30 6z m-85 -51 c-3 -5 -13 -10 -21 -10 -8 0 -12 5 -9 10 3 6 13 10 21 10 8
0 12 -4 9 -10z m54 7 c-2 -1 -12 -9 -22 -16 -15 -12 -17 -12 -11 3 3 9 13 16
22 16 8 0 13 -1 11 -3z m111 -7 c-20 -13 -33 -13 -25 0 3 6 14 10 23 10 15 0
15 -2 2 -10z m56 -5 c-11 -8 -24 -15 -29 -15 -5 0 -7 -6 -4 -14 3 -8 -2 -16
-14 -19 -21 -6 -18 5 14 41 11 12 28 22 36 22 13 -1 12 -3 -3 -15z m-116 -5
c0 -5 -10 -10 -22 -10 -19 0 -20 2 -8 10 19 13 30 13 30 0z m170 -5 c0 -8 -4
-15 -9 -15 -13 0 -22 16 -14 24 11 11 23 6 23 -9z m-31 -55 c1 -12 -1 -12 -14
1 -10 10 -13 22 -9 34 7 18 8 18 15 -1 4 -10 8 -26 8 -34z m-284 20 c-10 -11
-23 -20 -28 -20 -13 0 24 39 37 39 5 1 1 -8 -9 -19z m341 -9 c-4 -6 -17 -11
-28 -11 -21 0 -21 1 -3 20 19 21 44 13 31 -9z m-276 9 c0 -5 -4 -10 -9 -10 -5
0 -18 -3 -28 -6 -16 -6 -16 -5 2 9 23 19 35 21 35 7z m115 0 c4 -6 -5 -10 -20
-10 -15 0 -24 4 -20 10 3 6 12 10 20 10 8 0 17 -4 20 -10z m50 -20 c-3 -5 3
-10 15 -10 11 0 20 -6 19 -12 -3 -27 2 -38 16 -38 17 0 17 -2 9 -23 -9 -24
-44 -9 -44 19 0 29 -25 23 -34 -9 -7 -28 -12 -21 -20 28 -6 35 -5 38 7 23 8
-10 17 -18 21 -18 4 0 6 8 5 18 -2 23 0 32 7 32 3 0 2 -4 -1 -10z m-235 -17
c0 -5 -13 -16 -29 -25 -21 -11 -28 -12 -25 -3 3 7 15 17 27 23 28 14 27 13 27
5z m380 -2 c0 -5 -6 -16 -14 -23 -7 -8 -17 -24 -20 -36 -9 -28 -26 -19 -26 13
0 13 -8 29 -17 34 -17 10 -17 10 0 11 9 0 17 -4 17 -10 0 -15 19 -12 36 5 18
17 24 19 24 6z m-300 -5 c0 -2 -8 -10 -17 -17 -16 -13 -17 -12 -4 4 13 16 21
21 21 13z m-51 -55 c10 -7 8 -9 -10 -8 -13 0 -33 -3 -44 -7 -20 -8 -20 -7 -1
8 22 18 35 20 55 7z m155 1 c2 -4 1 -14 -5 -22 -6 -10 -9 -11 -9 -3 0 9 -10
11 -32 7 -32 -6 -32 -6 -13 9 22 18 51 22 59 9z m56 -12 c0 -5 -4 -10 -10 -10
-5 0 -10 5 -10 10 0 6 5 10 10 10 6 0 10 -4 10 -10z"/>
<path d="M1436 845 c-3 -9 -6 -22 -5 -28 0 -7 5 -1 10 12 5 13 8 26 5 28 -2 2
-6 -3 -10 -12z"/>
<path d="M3445 740 c3 -5 23 -10 43 -9 33 1 34 2 12 9 -36 12 -62 12 -55 0z"/>
<path d="M3637 693 c-12 -12 -7 -22 8 -17 8 4 15 10 15 15 0 11 -14 12 -23 2z"/>
<path d="M3393 592 c23 -25 21 -32 -8 -32 -23 0 -24 -2 -13 -20 11 -17 10 -22
-2 -30 -17 -11 -14 -14 28 -28 17 -6 32 -7 32 -3 0 5 -9 11 -20 14 -31 8 -24
28 9 25 16 -1 27 -6 25 -10 -3 -4 2 -8 10 -8 8 0 18 5 21 11 4 6 13 8 21 5 8
-3 14 1 14 10 0 10 -6 13 -17 10 -12 -4 -33 8 -61 34 -44 41 -68 55 -39 22z"/>
<path d="M3516 584 c-4 -9 -4 -19 -1 -22 6 -6 35 18 35 29 0 16 -28 10 -34 -7z"/>
<path d="M96 498 c-18 -25 -21 -48 -6 -48 8 0 40 51 40 65 0 13 -20 3 -34 -17z"/>
<path d="M3325 510 c3 -5 8 -10 11 -10 2 0 4 5 4 10 0 6 -5 10 -11 10 -5 0 -7
-4 -4 -10z"/>
<path d="M3320 461 c0 -10 30 -24 37 -17 3 2 -5 9 -16 16 -12 6 -21 7 -21 1z"/>
<path d="M3410 415 c33 -19 49 -19 24 0 -10 8 -26 14 -34 14 -9 0 -4 -6 10
-14z"/>
<path d="M554 355 c25 -19 36 -19 36 0 0 10 -10 15 -27 15 -27 -1 -27 -1 -9
-15z"/>
<path d="M5 337 c-4 -8 -5 -26 -3 -39 4 -22 5 -22 17 6 8 20 8 33 2 39 -7 7
-12 5 -16 -6z"/>
<path d="M626 333 c-6 -14 -5 -15 5 -6 7 7 10 15 7 18 -3 3 -9 -2 -12 -12z"/>
<path d="M716 325 c4 -8 10 -15 15 -15 4 0 6 7 3 15 -4 8 -10 15 -15 15 -4 0
-6 -7 -3 -15z"/>
<path d="M773 324 c3 -4 0 -19 -9 -35 -8 -16 -11 -29 -7 -29 8 0 33 47 33 62
0 4 -5 8 -12 8 -6 0 -9 -3 -5 -6z"/>
<path d="M2690 320 c0 -5 5 -10 10 -10 6 0 10 5 10 10 0 6 -4 10 -10 10 -5 0
-10 -4 -10 -10z"/>
<path d="M580 316 c0 -2 7 -6 15 -10 8 -3 15 -1 15 4 0 6 -7 10 -15 10 -8 0
-15 -2 -15 -4z"/>
<path d="M690 300 c0 -5 5 -10 10 -10 6 0 10 5 10 10 0 6 -4 10 -10 10 -5 0
-10 -4 -10 -10z"/>
<path d="M830 299 c0 -5 5 -7 10 -4 6 3 10 8 10 11 0 2 -4 4 -10 4 -5 0 -10
-5 -10 -11z"/>
<path d="M498 283 c10 -4 8 -9 -7 -20 -17 -11 -18 -17 -8 -27 8 -10 17 -11 30
-4 12 6 23 6 32 -2 11 -9 17 -5 30 19 14 29 14 32 0 38 -9 3 -21 1 -28 -6 -8
-8 -8 -11 1 -11 22 0 12 -18 -13 -22 -33 -7 -39 1 -18 24 15 17 15 18 -8 17
-13 0 -18 -3 -11 -6z"/>
<path d="M366 262 c-2 -4 -1 -14 4 -22 7 -11 12 -12 21 -3 6 6 8 16 5 22 -8
13 -23 14 -30 3z"/>
<path d="M430 245 c0 -8 7 -15 16 -15 14 0 14 -3 4 -15 -10 -12 -10 -15 3 -15
10 0 14 -6 11 -14 -3 -7 2 -21 11 -30 17 -16 40 -22 33 -8 -37 80 -55 112 -65
112 -7 0 -13 -7 -13 -15z"/>
<path d="M726 245 c4 -8 10 -12 15 -9 11 6 2 24 -11 24 -5 0 -7 -7 -4 -15z"/>
<path d="M586 225 c4 -8 10 -15 15 -15 5 0 9 7 9 15 0 8 -7 15 -15 15 -9 0
-12 -6 -9 -15z"/>
<path d="M903 233 c-15 -5 -18 -33 -4 -33 8 0 25 30 19 35 -2 1 -9 0 -15 -2z"/>
<path d="M656 214 c-4 -10 -1 -14 6 -12 15 5 23 28 10 28 -5 0 -13 -7 -16 -16z"/>
<path d="M507 190 c6 -24 19 -26 27 -4 9 23 8 24 -13 24 -14 0 -18 -5 -14 -20z"/>
<path d="M761 194 c0 -11 3 -14 6 -6 3 7 2 16 -1 19 -3 4 -6 -2 -5 -13z"/>
<path d="M805 200 c3 -5 10 -10 16 -10 5 0 9 5 9 10 0 6 -7 10 -16 10 -8 0
-12 -4 -9 -10z"/>
<path d="M618 174 c2 -14 0 -24 -7 -24 -6 0 -11 -7 -11 -15 0 -23 16 -18 28
10 15 33 15 42 -1 48 -10 4 -13 -2 -9 -19z"/>
<path d="M556 176 c3 -9 11 -16 16 -16 13 0 5 23 -10 28 -7 2 -10 -2 -6 -12z"/>
<path d="M682 170 c14 -22 24 -19 15 5 -4 8 -11 15 -17 15 -6 0 -6 -7 2 -20z"/>
<path d="M537 163 c-4 -7 -3 -14 3 -18 6 -4 8 -10 5 -15 -3 -5 -1 -11 5 -15
12 -7 12 11 1 39 -5 13 -10 16 -14 9z"/>
<path d="M786 163 c5 -5 12 -12 16 -18 4 -6 8 -2 8 8 0 9 -7 17 -17 17 -9 0
-12 -3 -7 -7z"/>
<path d="M645 150 c-3 -5 -1 -10 4 -10 6 0 11 -7 11 -15 0 -8 4 -15 9 -15 11
0 3 38 -10 45 -4 3 -10 1 -14 -5z"/>
<path d="M710 125 c14 -17 30 -20 30 -4 0 5 -4 7 -10 4 -5 -3 -10 -1 -10 4 0
6 -5 11 -11 11 -8 0 -8 -5 1 -15z"/>
<path d="M500 119 c0 -6 6 -17 14 -25 19 -18 33 1 16 21 -15 18 -30 20 -30 4z"/>
<path d="M824 106 c0 -13 4 -22 9 -19 10 6 9 31 -2 37 -5 3 -8 -5 -7 -18z"/>
<path d="M580 100 c-15 -27 -12 -32 9 -20 25 13 31 13 31 0 0 -6 -10 -15 -22
-20 -14 -5 -17 -9 -8 -9 9 -1 16 -11 17 -22 2 -28 7 -31 35 -26 l23 4 -22 8
c-26 9 -26 34 2 65 10 11 16 20 14 20 -2 0 -19 4 -37 9 -27 8 -34 7 -42 -9z"/>
<path d="M880 103 c5 -2 8 -9 4 -14 -3 -5 0 -9 6 -9 15 0 7 23 -8 26 -7 1 -8
0 -2 -3z"/>
<path d="M935 90 c3 -5 8 -10 11 -10 2 0 4 5 4 10 0 6 -5 10 -11 10 -5 0 -7
-4 -4 -10z"/>
<path d="M746 75 c8 -19 10 -19 18 0 3 9 0 15 -9 15 -9 0 -12 -6 -9 -15z"/>
<path d="M474 64 c3 -9 6 -18 6 -20 0 -2 7 -4 16 -4 11 0 14 5 10 16 -3 9 -6
18 -6 20 0 2 -7 4 -16 4 -11 0 -14 -5 -10 -16z"/>
<path d="M803 65 c0 -8 4 -12 9 -9 5 3 6 10 3 15 -9 13 -12 11 -12 -6z"/>
<path d="M856 61 c10 -10 21 -17 23 -15 6 6 -20 34 -32 34 -6 0 -2 -8 9 -19z"/>
<path d="M1001 64 c0 -11 3 -14 6 -6 3 7 2 16 -1 19 -3 4 -6 -2 -5 -13z"/>
<path d="M550 50 c0 -19 3 -21 12 -12 9 9 9 15 0 24 -9 9 -12 7 -12 -12z"/>
<path d="M1045 60 c3 -5 8 -10 11 -10 2 0 4 5 4 10 0 6 -5 10 -11 10 -5 0 -7
-4 -4 -10z"/>
<path d="M645 50 c3 -5 11 -10 16 -10 6 0 7 5 4 10 -3 6 -11 10 -16 10 -6 0
-7 -4 -4 -10z"/>
<path d="M1227 49 c7 -7 15 -10 18 -7 3 3 -2 9 -12 12 -14 6 -15 5 -6 -5z"/>
<path d="M716 36 c21 -15 30 -14 19 3 -3 6 -14 11 -23 11 -13 0 -13 -2 4 -14z"/>
<path d="M950 46 c0 -2 7 -6 15 -10 8 -3 15 -1 15 4 0 6 -7 10 -15 10 -8 0
-15 -2 -15 -4z"/>
<path d="M823 29 c9 -6 15 -14 12 -20 -4 -5 -2 -9 4 -9 20 0 21 19 2 29 -25
14 -42 14 -18 0z"/>
<path d="M920 33 c0 -15 18 -35 27 -32 5 2 1 12 -9 22 -10 9 -18 14 -18 10z"/>
<path d="M1026 25 c8 -19 14 -19 14 0 0 8 -4 15 -10 15 -5 0 -7 -7 -4 -15z"/>
<path d="M504 15 c24 -18 39 -20 34 -2 -3 6 -15 13 -29 15 -23 2 -23 2 -5 -13z"/>
<path d="M2555 20 c-3 -5 -2 -10 4 -10 5 0 13 5 16 10 3 6 2 10 -4 10 -5 0
-13 -4 -16 -10z"/>
<path d="M570 10 c0 -5 5 -10 10 -10 6 0 10 5 10 10 0 6 -4 10 -10 10 -5 0
-10 -4 -10 -10z"/>
<path d="M885 10 c4 -6 11 -8 16 -5 14 9 11 15 -7 15 -8 0 -12 -5 -9 -10z"/>
<path d="M688 3 c7 -3 16 -2 19 1 4 3 -2 6 -13 5 -11 0 -14 -3 -6 -6z"/>
</g>
</svg>
